<?xml version="1.0" encoding="UTF-8" standalone="no"?>
<!-- Created with Inkscape (http://www.inkscape.org/) -->

<svg
   xmlns:dc="http://purl.org/dc/elements/1.1/"
   xmlns:cc="http://creativecommons.org/ns#"
   xmlns:rdf="http://www.w3.org/1999/02/22-rdf-syntax-ns#"
   xmlns:svg="http://www.w3.org/2000/svg"
   xmlns="http://www.w3.org/2000/svg"
   xmlns:sodipodi="http://sodipodi.sourceforge.net/DTD/sodipodi-0.dtd"
   xmlns:inkscape="http://www.inkscape.org/namespaces/inkscape"
   version="1.2"
   width="894.43695"
   height="841.99652"
   id="PyDX"
   style="enable-background:new"
   inkscape:version="0.48.4 r9939"
   sodipodi:docname="PyDX.svg.2015_04_20_20_25_04.0.svg">
  <title
     id="title3047">PyDX</title>
  <sodipodi:namedview
     pagecolor="#ffffff"
     bordercolor="#666666"
     borderopacity="1"
     objecttolerance="10"
     gridtolerance="10"
     guidetolerance="10"
     inkscape:pageopacity="0"
     inkscape:pageshadow="2"
     inkscape:window-width="833"
     inkscape:window-height="713"
     id="namedview70"
     showgrid="false"
     inkscape:zoom="0.56057239"
     inkscape:cx="475.56916"
     inkscape:cy="515.81406"
     inkscape:window-x="75"
     inkscape:window-y="34"
     inkscape:window-maximized="0"
     inkscape:current-layer="PyDX"
     showguides="false"
     inkscape:snap-from-guide="false" />
  <defs
     id="defs4">
    <clipPath
       id="cupClip">
      <path
         d="m 66.53125,111.78125 0,576.5625 768.71875,0 0,-576.5625 z m 400.25,312.8125 7.4375,3.28125 3.34375,4.5 c 14.19598,-7.8742 27.25759,1.38047 44,4.93642 13.12466,4.33781 25.50833,11.91675 35.4309,13.62785 22.61906,3.94086 43.42676,-0.76435 64.75682,-1.335 12.14487,1.40078 20.32387,2.0603 23.17531,4.19619 l 2.16822,-8.58171 1.6875,-5.625 c 5.31636,2.52893 9.74674,6.3282 12.90625,10.96875 4.80827,7.06218 7.13167,15.69495 7.34375,24.34375 0.39071,15.93343 -4.15362,25.58035 -10.625,30.90625 -6.47138,5.3259 -13.84681,2.77243 -17,4.07746 -9.20679,3.81045 -24.00179,8.99379 -40.21875,9.54754 -9.3903,0.32064 -19.01384,0.1611 -28,-0.40625 l -12.875,-1.21875 c -1.75626,-0.22789 -3.62942,-0.4141 -5.25,-0.6875 -29.32816,-4.94786 -47.4014,-14.00288 -63.15451,-21.17254 l -9.03385,-3.3572 C 461.251,479.42231 454.22449,463.41721 455.1875,449.34375 c 0.65316,-7.86538 4.80369,-16.22651 11.59375,-24.75 z"
         id="path3928-0-4"
         style="color:#000000;fill:#ff0000;fill-opacity:1;stroke:none;stroke-width:13.80000019;marker:none;visibility:visible;display:inline;overflow:visible;enable-background:accumulate"
         inkscape:connector-curvature="0" />
    </clipPath>
  </defs>
  <metadata
     id="metadata7">
    <rdf:RDF>
      <cc:Work
         rdf:about="">
        <dc:format>image/svg+xml</dc:format>
        <dc:type
           rdf:resource="http://purl.org/dc/dcmitype/StillImage" />
        <dc:title>PyDX</dc:title>
        <dc:creator>
          <cc:Agent>
            <dc:title>Laurel Hart</dc:title>
          </cc:Agent>
        </dc:creator>
      </cc:Work>
    </rdf:RDF>
  </metadata>
  <g
     id="layer15"
     style="display:inline">
    <path
       d="m 416.61476,42.65052 c -0.50052,0.003 -1.01042,0.0253 -1.53125,0.0625 -11.87452,0.84818 -15.47024,11.9003 -27.375,14.28125 -11.90476,2.38096 -30.95833,-10.72471 -47.625,-8.34375 -16.66666,2.38095 -27.36172,17.72574 -36.90625,21.4375 -21.42857,8.33333 -31.1238,16.3997 -38.53125,29.1875 -46.69826,80.6173 -31.8466,204.44196 11.34904,258.92067 59.08221,74.51501 140.65318,153.46695 39.15096,281.79808 -6.19199,7.82864 -15.25212,12.39072 -23.96875,16.71875 -60.26853,-9.32632 -117.54713,-27.26672 -154.96875,-24.59375 -55.263158,3.94737 -100.663685,33.42975 -118.406248,57.875 -14.7455801,20.31608 -24.3460889,87.97476 18.40625,121.71875 42.993163,33.93407 301.642448,32.67238 346.062498,0 9.31116,-6.84866 20.38405,-15.45173 32,-26.71875 18.04584,-5.93914 35.98947,-12.95204 46.8125,-17.28125 12.02081,-4.80832 30.43714,-13.24586 49.6875,-20.28125 3.3922,18.39808 11.83855,36.42331 28.40625,49.5 20.62046,16.27549 83.92136,24.44669 154.75,24.625 74.468,0.0299 143.69505,-8.12018 165.4375,-25.28125 42.75238,-33.74395 28.98633,-107.22059 21.875,-129.46875 -3.46331,-10.83512 -11.47173,-22.04337 -19.9375,-27.625 -29.97028,-21.92658 -84.74739,-36.46231 -138.46875,-43.8125 1.01888,-6.26202 1.51356,-13.05639 1.34375,-20.53125 -2.19162,-96.47143 -83.32887,-90.46429 -89.28125,-129.75 -1.80675,-11.92453 2.76792,-35.8607 21.625,-53.5 24.2855,1.74128 55.56291,0.10321 67.96875,-5.03125 8.51435,-3.52388 24.34504,-4.42132 23.61164,-34.32586 -0.3805,-15.51726 -7.79204,-30.00728 -23.92414,-32.26789 l 0.375,0.5625 c -0.2068,-0.0337 -0.41551,-0.0644 -0.625,-0.0937 -8.94893,-0.21659 -17.46592,-0.12672 -25.56924,0.246 0,0 1.95783,-4.45528 2.16299,-4.52725 14.37444,-1.0158 51.61304,3.57425 74.0625,-35.59375 33.27668,-58.05846 -19.49134,-112.73739 -25.03125,-105.8125 -3.84756,4.80945 30.99975,35.35571 2.90625,78.875 -18.75561,29.05409 -62.52212,25.98247 -87.53125,27.90625 -25.00913,1.92378 -80.625,1.375 -80.625,1.375 -10.16202,1.14293 -36.56762,11.07311 -38.90625,45.25 l 0.1875,-0.0312 c -0.78421,13.48097 4.66325,30.45438 29.21875,42.84375 -18.58746,23.35678 -24.1637,51.34578 -22.65625,76.21875 3.44828,56.89655 57.87208,58.66537 58.625,117.21875 0.13131,10.21163 -1.86448,19.18131 -5.34375,27.1875 -46.88165,4.5863 -80.88197,16.60479 -110.65625,29.4375 3.42083,-18.98502 4.40757,-39.9059 7.21875,-62.59375 18.11472,-146.1961 -170.83918,-241.5235 -137.4375,-349.6875 9.95822,5.03816 19.8924,9.46596 29.09375,12.53125 50.36521,16.77838 67.85864,11.90476 86.90625,0 16.27805,-10.17379 14.3619,-26.57622 5.96875,-36.90625 -15.47619,-19.04762 -34.87913,-15.39642 -36.46875,-41.65625 -1.36374,-22.52834 32.75108,-25.47067 44.78125,-34.53125 8.49485,-20.44593 -2.48695,-47.14164 -8.43934,-48.33211 -10.76251,-2.1525 -22.62722,-5.67207 -33.21691,-4.04289 -14.99256,2.30655 -21.04624,-13.26325 -36.5625,-13.15625 z"
       id="snakeFill"
       style="color:#000000;fill:#ffffff;fill-opacity:1;stroke:none;stroke-width:1.5;marker:none;visibility:visible;display:inline;overflow:visible;enable-background:accumulate"
       inkscape:connector-curvature="0" />
    <path
       d="m 474.18589,371.75322 -0.37002,27.38754 16.14779,4.647 3.7944,16.53689 -0.72274,-0.20635 0.6324,3.4194 4.27623,22.16709 9.84737,38.20288 0.90343,4.06789 15.08726,67.82779 0.54206,2.41715 2.43926,0.67799 c 19.34795,5.52423 44.25511,4.86544 66.6907,2.00447 11.21779,-1.43049 19.27783,-3.42784 26.69893,-5.65969 3.71054,-1.11593 6.74707,-2.27337 9.15474,-3.62573 1.20384,-0.67618 2.26714,-1.38015 3.22223,-2.41716 0.8616,-0.93551 1.62932,-2.41408 1.65629,-4.15633 l 0.0903,0 3.19212,-81.38744 0.18068,-4.15633 -0.18068,0 c 0.59753,-0.41782 1.01683,-1.04236 1.054,-1.91604 l 2.01765,-47.57673 0.2108,-5.18804 -1.11422,1.03171 17.82293,-28.28704 -17.77213,-42.19195 -40.412,-7.35228 -81.10314,6.30912 -37.4356,16.38337 z"
       transform="translate(84.89601,-121.56823)"
       clip-path="url(#clipPath3133-3-6)"
       id="cupFill"
       style="font-size:medium;font-style:normal;font-variant:normal;font-weight:normal;font-stretch:normal;text-indent:0;text-align:start;text-decoration:none;line-height:normal;letter-spacing:normal;word-spacing:normal;text-transform:none;direction:ltr;block-progression:tb;writing-mode:lr-tb;text-anchor:start;baseline-shift:baseline;color:#000000;fill:#ffffff;fill-opacity:1;stroke:none;stroke-width:8.80000019;marker:none;visibility:visible;display:inline;overflow:visible;enable-background:accumulate;font-family:Sans;-inkscape-font-specification:Sans"
       inkscape:connector-curvature="0" />
    <g
       id="spots">
      <path
         d="m 586.80226,325.02552 c -0.25969,0.007 -0.48279,0.0293 -0.65625,0.0625 -3.61165,0.69041 -8.93114,2.5132 -12.75,14.65625 -2.73326,8.69104 -1.04062,15.13118 -0.59375,20.0625 0.29694,3.27676 0.14437,6.71294 -0.34375,7.625 -1.8104,4.80596 25.77798,12.27936 38.03125,15.3125 0,-0.33868 -0.75725,-2.75584 -1.6875,-5.375 -1.68788,-4.75235 -1.6875,-4.79723 1.1875,-11.15625 2.32383,-5.1399 2.895,-7.82529 2.9375,-13.875 0.10696,-15.23702 -4.87386,-22.7763 -17.09375,-25.90625 -3.44725,-0.88296 -7.21344,-1.45368 -9.03125,-1.40625 z m 8.125,16.3125 c 3.72568,0 5.28924,1.41008 5.625,5.03125 0.49731,5.36353 -0.17655,8.17656 -2.53125,10.53125 -2.97591,2.97592 -5.85593,3.11282 -8.53125,0.4375 -2.6365,-2.63654 -2.61908,-8.28611 0.0625,-12.625 1.68215,-2.72178 2.71144,-3.375 5.375,-3.375 z"
         id="path5913"
         style="fill:#608FE9;fill-opacity:1;stroke:none;display:inline"
         inkscape:connector-curvature="0" />
      <path
         d="m 721.78518,382.55681 c -2.35258,-1.49553 -7.66778,-14.57556 -8.11516,-19.97039 -0.8008,-9.65657 6.40482,-23.61069 13.60581,-26.34851 6.90445,-2.62506 13.92153,0.7669 16.33046,7.89393 1.57779,4.66802 1.54081,19.26475 -0.0639,25.21727 -1.5222,5.6465 -5.36482,11.36266 -8.64229,12.85597 -2.82597,1.2876 -11.28583,1.51448 -13.11494,0.35173 z"
         id="path5915"
         style="fill:#608FE9;fill-opacity:1;stroke:none;display:inline"
         inkscape:connector-curvature="0" />
      <path
         d="m 546.07942,339.1828 c -2.07509,-6.17509 1.07952,-29.4144 8.49105,-33.30604 2.46959,0.78382 6.93847,10.47123 6.84893,14.84678 -0.0352,1.71906 -1.74356,6.95057 -3.79642,11.62557 -3.43602,7.8249 -3.97928,8.52432 -6.83998,8.80619 -2.31626,0.22823 -3.51391,-0.27402 -4.70358,-1.9725 z"
         id="path5917"
         style="fill:#608FE9;fill-opacity:1;stroke:none;display:inline"
         inkscape:connector-curvature="0" />
      <path
         d="m 723.84028,311.83684 c -0.54222,-16.39475 5.98329,-26.346 16.0656,-33.23773 9.60129,-6.49501 13.91373,-7.01601 17.98863,-2.17327 2.1209,2.52055 2.58821,4.10226 2.58515,8.75 -0.005,6.92455 -0.98991,12.3442 -7.02372,16.43593 -4.30642,2.80365 -27.8384,14.24341 -29.61562,10.22507 z"
         id="path5919"
         style="fill:#608FE9;fill-opacity:1;stroke:none;display:inline"
         inkscape:connector-curvature="0" />
      <path
         d="m 774.21952,265.09911 c -3.06744,-2.32932 -3.77169,-6.21107 -2.16811,-11.95031 3.59395,-12.86277 6.63864,-20.28566 3.32222,-32.16593 -1.82616,-6.54177 -1.47169,-12.08993 -0.52812,-12.32925 6.43219,3.60492 12.27737,21.56186 9.50861,24.19549 2.79194,8.34103 1.45421,33.28074 -6.80208,33.5 -0.92753,0 -2.42717,-0.5625 -3.33252,-1.25 z"
         id="path5921"
         style="fill:#608FE9;fill-opacity:1;stroke:none;display:inline"
         inkscape:connector-curvature="0" />
      <path
         d="m 750.66198,174.73872 c 1.04041,-0.64301 11.06427,7.71572 14.05252,11.71816 1.41127,1.89024 1.94506,4.66102 2.20453,11.4432 0.35094,9.17304 -0.42159,12.44903 -2.93567,12.44903 -3.04828,-10.56164 -14.85968,-29.49495 -13.32138,-35.61039 z"
         id="path5923"
         style="fill:#608FE9;fill-opacity:1;stroke:none;display:inline"
         inkscape:connector-curvature="0" />
      <path
         d="m 427.89601,46.18177 c -0.95144,-0.0603 -1.29425,0.56704 -0.875,2.21875 0.59963,2.36233 3.51608,10.87501 3,11.375 -1.31955,1.2784 -12.22566,2.42797 -18.53125,2.59375 -3.025,0.0795 -9.47533,4.2075 -17.8125,4.78125 -14.3903,0.9903 -18.14622,-2.62757 -20.84375,-4.5 -10.816,-7.12598 -22.77992,-11.63971 -34.3125,-11.96875 -7.14488,-0.20386 -10.1519,4.52023 -16.90625,7.75 -12.18347,6.29314 -24.26077,11.77016 -35.90625,19.5 -38.44511,18.36335 -50.68567,84.41435 -45.53125,104.65625 2.84922,3.14836 6.07916,2.00984 13.3125,-4.6875 6.57569,-5.98531 15.2489,-7.93661 20.1875,-14.9375 5.31636,-7.53639 5.81171,-17.05287 -4.625,-24.4375 -5.68126,-4.18962 -3.03805,-8.57453 -0.84375,-14.34375 1.86485,-4.32061 7.86865,-14.36163 12.5625,-16.3125 4.55447,-1.89295 11.05494,-0.6401 12.71875,2.46875 0.56947,1.06406 3.01051,3.10894 5.4375,4.53125 3.52727,2.06712 5.46524,-0.56898 9.65625,-0.8125 9.99669,-4.26154 48.42309,2.34144 78.40625,7.40625 28.18823,4.97225 66.62349,3.83594 75.1875,-25.75 -6.95294,6.96406 -21.98881,13.55261 -33.0625,17.1875 -2.66695,0.87542 -20.55,1.03753 -29.625,-0.875 -9.075,-1.91253 -18.975,-3.78267 -22,-4.15625 -3.025,-0.37358 -9.775,-2.042 -15,-3.71875 -7.9658,-2.5563 -11.62259,-3.14858 -22.59375,-3.5625 -7.29003,-0.27503 -17.60658,0.0241 -23.3125,0.6875 -8.78118,1.02087 -10.58361,0.99489 -12.53125,-0.28125 -5.29353,-3.46846 -5.75185,-12.18566 -0.90625,-17.03125 3.0643,-3.0643 8.32778,-3.49501 14,-1.125 1.97451,0.825 4.48077,1.5 5.5625,1.5 2.8157,-0.018 -4.30183,-6.98559 -3.875,-12.09375 9.00742,-15.22608 18.7681,-22.42453 32.8125,-0.65625 -5.38849,8.21024 -17.16704,9.36919 -23.9375,13.875 10.75367,10.31926 34.24635,-0.63226 46.28125,-4.84375 9.62086,-2.98728 13.00602,-3.51652 27,-4.25 14.36366,-0.75285 19.51145,-2.51313 32.46875,-5.78125 6.65462,-1.67845 20.84355,0.54136 25.4375,3.5 2.40014,1.54578 6.2841,2.83514 10,3.3125 7.9282,1.01851 10.39805,-0.60623 12.90625,-8.40625 1.38149,-4.29619 2.28511,-5.65625 3.75,-5.65625 2.65722,0 2.43694,-0.70023 -1.1875,-3.75 -9.07828,-7.56307 -29.47463,3.22641 -43.78125,-6 -5.65058,-3.74086 -10.59434,-7.27349 -12.6875,-7.40625 z m -172.875,99.34375 c 1.71588,-0.0551 3.00844,1.96144 3.28125,5.625 0.22883,3.07289 -0.20743,4.61368 -1.75,6.15625 -2.4273,2.4273 -5.8827,2.67871 -6.71875,0.5 -1.00147,-2.6098 0.46861,-8.7186 2.625,-10.875 0.91307,-0.91307 1.78255,-1.3812 2.5625,-1.40625 z"
         id="path5925"
         style="fill:#608FE9;fill-opacity:1;stroke:none;display:inline"
         inkscape:connector-curvature="0" />
      <path
         d="m 492.44488,91.78821 c -0.0554,1.69292 -0.81729,8.89047 -2.22533,11.32895 -0.96259,1.66704 -16.66077,2.36468 -19.64353,-9.89224 8.66523,5.25964 18.59045,4.37786 21.86886,-1.43671 z"
         id="path5927"
         style="fill:#608FE9;fill-opacity:1;stroke:none;display:inline"
         inkscape:connector-curvature="0" />
      <path
         d="m 666.67726,337.49427 c -3.09888,-0.0629 -6.32934,1.04685 -10.875,3.4375 -8.7255,4.58891 -12.84853,8.57778 -14.78125,14.25 -2.2116,6.49071 -1.93771,10.1284 1.4375,18.625 1.64295,4.13589 3.27432,9.33821 3.625,11.53125 0.70786,4.42672 -2.12295,4.82453 1.5625,5.5625 12.08134,2.10313 20.10042,1.4193 30.0625,1.4375 3.74522,0 4.27014,-0.89555 3.9375,-6.75 -0.29058,-5.11402 0.0655,-6.39903 3.25,-11.6875 2.97499,-4.94046 3.5808,-6.87585 3.5625,-11.5 -0.039,-9.86086 -5.16099,-18.05042 -14.1875,-22.65625 -2.84024,-1.44925 -5.18351,-2.20105 -7.59375,-2.25 z m -3.5,16.0625 c 0.60519,-0.005 1.26208,0.0492 1.9375,0.21875 2.74285,0.68841 6.369,5.9584 6.375,9.25 0.005,3.09997 -3.07642,8.04885 -5.78125,9.28125 -5.89645,2.68661 -9.21875,0.16815 -9.21875,-6.96875 0,-7.5196 2.45119,-11.74651 6.6875,-11.78125 z"
         id="path5911"
         style="fill:#608FE9;fill-opacity:1;stroke:none;display:inline"
         inkscape:connector-curvature="0" />
      <path
         d="m 588.80976,456.30471 c -5.3629,-1.0604 -9.15138,-3.06363 -12.51278,-6.61634 -3.66672,-3.87541 -4.81362,-7.37052 -4.81362,-14.66919 0,-9.15819 1.88619,-12.25741 17.60078,-28.92009 15.40526,-12.34876 13.84885,0.57621 16.42926,13.75 l -3.76502,3.22726 c -8.18084,7.01235 -8.3983,7.28024 -8.07867,9.95258 0.17251,1.4423 1.45322,3.46912 2.84603,4.50404 2.43024,1.80577 2.71952,1.81231 7.17203,0.16209 7.52589,-3.45805 7.7849,2.27289 14.37479,6.29374 1.79283,1.06379 1.61267,1.43776 -2.7042,5.61341 -7.12263,6.88961 -15.23915,8.93872 -26.5486,6.7025 z"
         id="path5909"
         style="fill:#608FE9;fill-opacity:1;stroke:none;display:inline"
         inkscape:connector-curvature="0" />
      <path
         d="m 415.14601,431.49427 c -1.84501,0.0302 -3.53012,0.94564 -5.6875,2.71875 -1.91281,1.57212 -5.33949,3.80622 -7.625,4.96875 -4.31932,2.19705 -8.34375,6.4522 -8.34375,8.8125 0,2.93929 3.89131,5.3503 8.75,5.4375 2.6125,0.0469 8.35,1.3501 12.75,2.875 14.36042,4.9769 15.9618,4.07389 14.59375,-8.125 -0.99249,-8.85002 -1.99448,-10.69216 -7.78125,-14.1875 -2.80115,-1.69196 -4.81124,-2.5302 -6.65625,-2.5 z m -1.125,10.21875 c 0.59736,-0.0209 1.24126,0.0518 1.90625,0.21875 3.31545,0.83212 4.85482,2.87861 4.0625,5.375 -0.72754,2.29227 -4.43916,2.65039 -8.25,0.8125 -4.10671,-1.9806 -1.9003,-6.25969 2.28125,-6.40625 z"
         id="path5907"
         style="fill:#608FE9;fill-opacity:1;stroke:none;display:inline"
         inkscape:connector-curvature="0" />
      <path
         d="m 353.72234,458.62182 4.13051,-0.0165 c 5.76072,-0.023 7.44227,1.14265 10.20359,7.0733 1.7848,3.83333 2.40991,6.90564 2.41715,11.88001 0.009,6.00618 -2.18417,7.35357 -4.59424,9.58831 -4.88234,-6.82264 -6.92765,-10.23887 -12.15701,-28.52512 z"
         id="path5905"
         style="fill:#608FE9;fill-opacity:1;stroke:none;display:inline"
         inkscape:connector-curvature="0" />
      <path
         d="m 650.17726,470.80677 c -1.76509,0.38354 -8.97753,1.0468 -16.03125,1.46875 -12.08329,0.72283 -12.97965,0.91473 -15.5,3.4375 -2.37067,2.37294 -2.66025,3.44672 -2.65625,9.40625 0.004,5.54423 0.17149,7.02191 2.78125,11.46875 2.60976,4.44684 5.48055,6.56959 11.21875,8.375 5.7382,1.80541 2.91369,2.37628 17.6875,0.81195 11.14244,-1.17982 13.32763,-2.53114 18,-5.31195 2.92488,-1.74078 7.43171,-4.18532 10.03125,-5.40625 2.59954,-1.22094 4.737,-2.51136 4.75,-2.875 -1.30052,-3.97994 -24.70777,-22.17426 -30.28125,-21.375 z m -14.3125,10.875 c 4.37031,-0.33509 8.3691,4.62622 5.90625,8.5625 -1.39208,2.22488 -6.65732,2.59268 -8.65625,0.59375 -2.57557,-2.57557 -2.09723,-7.30201 0.875,-8.65625 0.62113,-0.28301 1.25067,-0.45213 1.875,-0.5 z"
         id="path5903"
         style="fill:#608FE9;fill-opacity:1;stroke:none;display:inline"
         inkscape:connector-curvature="0" />
      <path
         d="m 402.42726,463.49427 c -2.41355,0.008 -4.86319,0.80129 -7.96875,2.375 -7.58686,3.84456 -8.21416,5.36559 -8.46875,20.75 -0.19828,11.98199 -0.45297,13.73468 -2.84375,18.71875 -5.42619,11.31197 -1.63142,30.54919 6.71875,34.0625 1.16952,0.49207 6.85,0.64379 12.625,0.34375 5.775,-0.30004 13.425,-0.64346 17,-0.78125 8.87867,-0.3422 12.6947,-2.47747 17.34375,-9.625 5.24296,-8.06061 7.65625,-16.31551 7.65625,-26.1875 0,-7.08584 -0.36313,-8.72832 -3.15625,-13.96875 -4.21539,-7.90886 -12.94734,-15.88889 -20.46875,-18.71875 -3.22953,-1.21508 -8.01221,-3.30524 -10.625,-4.65625 -3.00499,-1.55378 -5.39895,-2.32037 -7.8125,-2.3125 z m -0.0312,29.96875 c 1.50252,-0.002 3.20403,0.92859 5.3125,2.8125 2.80468,2.50598 3.28125,3.58431 3.28125,7.59375 0,3.87542 -0.48344,5.05913 -2.8125,7.0625 -5.27625,4.53844 -13.6875,2.29828 -13.6875,-3.65625 0,-3.45146 2.35305,-9.54546 4.6875,-12.125 1.00856,-1.11445 2.05012,-1.68629 3.21875,-1.6875 z"
         id="path5901"
         style="fill:#608FE9;fill-opacity:1;stroke:none;display:inline"
         inkscape:connector-curvature="0" />
      <path
         d="m 702.42726,513.40052 c -1.95689,-0.0131 -4.51833,1.02901 -8.5,2.96875 -3.41569,1.66401 -9.6347,3.66941 -13.8125,4.46875 -6.2254,2.20959 -9.55808,0.66084 -15.34375,-1.71875 -13.49654,-5.51292 -17.96233,-4.31626 -23.78125,6.375 -2.20273,4.04716 -2.64016,5.99317 -2.28125,9.71875 0.61158,6.34827 5.36842,16.57211 9.34375,20.0625 4.67177,4.10187 7.90214,4.49821 17.4375,2.125 4.53915,-1.12973 10.40581,-2.0625 13.03125,-2.0625 5.77625,0 15.29398,2.83498 21.28125,6.34375 4.93329,2.8911 13.92963,12.26153 16.34375,17.03125 0.87107,1.72101 2.28108,3.9125 3.125,4.875 5.03366,-23.54867 3.73077,-47.18715 -10.40625,-64.59375 -2.38167,-3.8076 -3.9215,-5.57693 -6.4375,-5.59375 z m -43.53125,19.46875 c 2.60863,-0.15885 5.39791,1.21853 7.0625,4.4375 1.83412,3.54679 1.13729,7.63434 -1.53125,9.0625 -2.70758,1.44905 -7.20296,1.19963 -9.71875,-0.5625 -1.63161,-1.14283 -2.21875,-2.59388 -2.21875,-5.375 0,-4.63902 3.05229,-7.35827 6.40625,-7.5625 z"
         id="path5899"
         style="fill:#608FE9;fill-opacity:1;stroke:none;display:inline"
         inkscape:connector-curvature="0" />
      <path
         d="m 409.52101,556.49427 c -5.21513,-0.009 -9.3508,2.58714 -11.96875,7.71875 -3.0123,5.90458 -3.41404,10.73919 -1.65625,20 0.8728,4.59826 1.59375,11.68969 1.59375,15.78125 0,4.46061 0.56037,8.5371 1.40625,10.15625 1.98727,3.80393 6.77459,8.14587 10.1875,9.21875 3.63516,1.14274 9.73964,0.37547 14.21875,-1.75 8.50855,-4.03758 19.1875,-19.21914 19.1875,-27.28125 0,-2.0247 0.49678,-7.31416 1.09375,-11.75 0.80616,-5.99008 0.75979,-8.59264 -0.0937,-10.1875 -1.90854,-3.56613 -6.99887,-6.0545 -12.5,-6.0625 -3.53833,-0.005 -6.754,-0.88232 -11,-3 -3.82518,-1.9078 -7.33967,-2.83839 -10.46875,-2.84375 z m 4,18.96875 c 3.49738,-0.009 10.98355,4.17481 13,7.4375 2.44309,3.953 2.46111,5.6671 0.125,7.78125 -1.20318,1.08886 -3.58161,1.65625 -6.96875,1.65625 -4.4054,0 -5.39272,-0.36439 -6.8125,-2.53125 -1.0039,-1.53215 -1.71235,-4.77805 -1.78125,-8.21875 -0.0968,-4.83422 0.19925,-5.73689 1.8125,-6.0625 0.19497,-0.0394 0.39184,-0.0619 0.625,-0.0625 z"
         id="path5897"
         style="fill:#608FE9;fill-opacity:1;stroke:none;display:inline"
         inkscape:connector-curvature="0" />
      <path
         d="m 503.73336,633.01887 c -6.50646,-0.78979 -8.25,-1.34203 -8.25,-2.61309 7.62145,-15.39508 48.27486,-27.87351 75.23368,-35.05667 1.72118,0 -0.47428,9.54679 -3.08823,13.4289 -3.07149,4.56164 -12.66581,11.96588 -19.12518,14.75952 -2.46385,1.0656 -8.53885,3.00732 -13.5,4.31494 -4.96115,1.30762 -10.80292,3.3043 -12.98171,4.43706 -4.25332,2.21133 -5.62796,2.26615 -18.28856,0.72934 z"
         id="path5895"
         style="fill:#608FE9;fill-opacity:1;stroke:none;display:inline"
         inkscape:connector-curvature="0" />
      <path
         d="m 78.264239,660.35724 c -4.476994,-2.43672 -5.780876,-4.62905 -5.780876,-9.71988 12.676987,-13.71228 81.427387,-22.68303 91.984357,-15.581 2.59658,3.30102 2.54064,4.85866 -0.27564,7.67494 -1.89177,1.89177 -3.76618,2.40045 -10.75,2.91735 -11.61097,0.85936 -20.66385,3.6219 -28.41216,8.67013 -9.1625,5.9696 -12.11244,6.73864 -28.546557,7.44206 -13.341881,0.57106 -14.797048,0.45895 -18.219124,-1.4036 z"
         id="path5893"
         style="fill:#608FE9;fill-opacity:1;stroke:none;display:inline"
         inkscape:connector-curvature="0" />
      <path
         d="m 612.05226,556.33802 c 2.66362,18.38835 -9.76743,51.19286 -27.5625,66.53125 2.57173,3.09875 8.328,1.82234 16.4375,-3.65625 l 7.625,-5.15625 6.125,1.84375 c 7.64539,2.31483 11.42252,5.43162 14.4375,11.90625 2.63195,5.65208 2.90214,9.5553 1.21875,17.9375 -1.14562,5.70446 -1.12426,5.78199 1.875,8.78125 3.17235,3.17234 11.87871,6.23885 22.28125,7.84375 7.16648,1.10565 19.65768,0.42147 24.78125,-1.34375 15.6191,-9.79489 36.53651,-34.3961 36.21875,-56.875 -0.88115,-8.82019 -6.64289,-10.61095 -11.8125,-15.25 -3.94305,-3.55133 -8.19193,-7.03403 -9.4375,-7.71875 -1.33244,-0.73248 -6.77802,-4.17837 -13.25,-4.31057 -10.18957,-1.83126 -16.94263,2.37593 -20.90625,6.74807 -5.6729,6.30808 -14.02712,11.71875 -18.09375,11.71875 -4.07405,0 -12.0744,-5.18201 -15.21875,-9.875 -1.73952,-2.59625 -2.2957,-4.83751 -2.3125,-9.5 -0.0135,-3.743 -0.71772,-7.6773 -1.84375,-10.15625 -2.18297,-4.80578 -7.38567,-9.46875 -10.5625,-9.46875 z m 61.9375,54.03125 c 5.20666,-0.28954 11.41712,2.5521 14.03125,7.40625 1.81717,3.37428 1.83593,3.72863 0.28125,6.3125 -0.90883,1.51048 -2.72017,3.53483 -4,4.46875 -3.73683,2.72684 -8.76626,3.05216 -13.40625,0.90625 -4.6621,-2.15613 -5.40625,-3.48588 -5.40625,-9.75 0,-3.40587 0.56463,-5.03339 2.4375,-6.90625 1.53312,-1.53312 3.69583,-2.30589 6.0625,-2.4375 z"
         id="path5891"
         style="fill:#608FE9;fill-opacity:1;stroke:none;display:inline"
         inkscape:connector-curvature="0" />
      <path
         d="m 733.98976,597.77552 c -2.63445,2.10883 -2.98272,2.96536 -2.875,7.21875 0.17457,6.89273 6.54751,21.54314 10.96875,25.1875 6.39185,5.2687 28.49035,10.04426 46.90625,10.15625 10.45269,0.0636 15.80066,1.10192 19.40625,3.78125 3.89841,2.89694 3.83192,6.34591 -0.1875,9.875 -5.19327,4.47489 -40.12222,11.21718 -47.5,6.40625 -0.92985,-1.62017 -4.41168,-4.4664 -7.71875,-6.34375 -3.30707,-1.87735 -9.36389,-5.39752 -13.46875,-7.8125 -6.78911,-3.99418 -8.04752,-4.40825 -14.0625,-4.40625 -8.67192,0.003 -16.98263,4.00893 -21.4375,10.34375 -2.73082,3.88322 -3.0147,5.0598 -2.9375,11.5 0.0472,3.94151 0.39958,8.32358 0.8125,9.75 -0.47092,10.79343 -52.23095,-9.88586 -71.0625,-10.875 4.78965,10.62036 13.14121,21.30967 29.65625,28.3125 6.19482,2.62677 25.09001,1.15222 37.5,-1.03125 23.01149,-4.04875 39.90499,-5.7442 52.375,-5.25 11.09818,0.43984 13.89405,0.93044 23.3125,4.125 8.69134,2.94794 12.15352,3.625 18.5,3.625 10.11323,0 13.55335,-1.04631 18.65625,-5.75 2.3012,-2.12117 7.80105,-5.42208 12.1875,-7.3125 7.55178,-3.25459 8.57952,-3.4375 19.46875,-3.4375 14.55657,0 20.76378,1.55216 26.625,6.625 4.65908,4.0324 8.55749,4.92027 12.4375,2.84375 6.4884,-51.8105 -79.21244,-84.41977 -147.5625,-87.53125 z m -5.15625,60.65625 c 5.82922,-0.0111 9.12972,5.95791 4.1875,12.4375 -4.33517,5.53873 -14.89228,9.5127 -14.34375,-2.59375 0.27634,-4.81621 0.65822,-5.59926 3.71875,-7.65625 2.29179,-1.54031 4.49442,-2.18381 6.4375,-2.1875 z"
         id="path5889"
         style="fill:#608FE9;fill-opacity:1;stroke:none;display:inline"
         inkscape:connector-curvature="0" />
      <path
         d="m 198.33392,668.2872 c -4.2868,-1.77565 -9.56155,-6.48653 -11.57376,-10.33654 -2.44907,-4.68587 -5.06951,-16.92962 -4.15337,-19.4062 5.16801,-6.93807 15.0385,1.29975 16.41755,6.99121 0.84684,3.85563 7.60695,8.81343 12.01739,8.81343 2.35886,0 4.73283,-1.20001 8.59996,-4.34715 4.6294,-8.5675 42.64052,-4.88972 42.84167,2.79196 0,3.23644 -7.22446,7.63668 -14,8.52705 -3.025,0.39752 -7.975,1.75114 -11,3.00805 -4.01463,1.6681 -7.66053,2.31971 -13.5,2.41275 z"
         id="path5887"
         style="fill:#608FE9;fill-opacity:1;stroke:none;display:inline"
         inkscape:connector-curvature="0" />
      <path
         d="m 298.21517,657.16213 c 30.06333,-19.4484 65.01852,-58.91785 62.69395,-93.25279 -0.94779,-3.7763 1.82961,-4.31878 6.45156,-1.26012 2.10528,1.39321 5.97074,5.38313 8.58991,8.86649 l 4.76212,6.33339 -0.45315,7.07334 c -0.37779,5.89696 -1.2894,8.82395 -5.48129,17.59931 -2.76548,5.78927 -8.28042,15.83874 -12.25541,22.33213 -3.975,6.4934 -10.59293,18.78233 -14.70652,27.30873 -10.81644,22.41966 -15.28097,26.31066 -42.61152,37.13754 -15.30864,6.06445 -28.57767,8.85038 -48.22146,10.12445 -18.76121,1.21682 -73.43578,1.5329 -96,0.55497 -19.10323,-0.82792 -22.90139,-0.18391 -39.5,6.69762 -9.29372,3.85304 -15.68237,4.99163 -20.84136,3.71438 l 0,10e-6 c -1.837752,-0.45498 -4.762751,-2.12391 -6.500001,-3.70873 -1.73725,-1.58482 -6.354575,-5.79575 -10.260722,-9.35762 -3.906148,-3.56186 -8.946858,-7.69383 -11.201578,-9.18214 -5.321506,-3.51266 -7.623461,-7.76244 -6.061517,-11.19053 0.624844,-1.37138 1.806305,-2.75062 2.625467,-3.06496 77.205371,-22.24607 167.716161,11.51574 228.971521,-16.72547 z"
         id="path5885"
         style="fill:#608FE9;fill-opacity:1;stroke:none;display:inline"
         inkscape:connector-curvature="0" />
      <path
         d="m 49.007246,664.34911 c 3.922064,0 6.476117,2.868 6.476117,7.27217 0,5.59552 -2.421554,8.16633 -12.863014,13.65581 -10.110347,5.31541 -15.885667,10.40341 -26.689151,23.51291 -3.145728,3.81718 -4.767495,4.96662 -7.25,5.13849 8.865612,-29.37497 33.765505,-47.09455 40.326048,-49.57938 z"
         id="path5883"
         style="fill:#608FE9;fill-opacity:1;stroke:none;display:inline"
         inkscape:connector-curvature="0" />
      <path
         d="m 558.48976,645.86927 c -13.84147,6.11202 -27.1692,22.50627 -33,12.875 -1.83847,-3.1701 -13.04351,-8.335 -18,-8.3125 -1.925,0.009 -5.3,0.64492 -7.5,1.4375 -2.2,0.79257 -5.275,1.46075 -6.8125,1.46875 -5.76567,10.55776 -18.87815,51.79028 -27.0625,66.40625 0.59548,2.26018 1.40115,4.92099 2.4375,8.15625 3.68329,11.49848 3.55097,14.79906 -0.9375,22.09375 -3.61298,5.87184 -4.1084,11.16022 -1.28125,13.71875 22.99891,-7.67667 35.43334,-16.62948 43,-17.28125 3.01289,2.50641 8.32945,9.33675 14.3125,19.21875 5.92271,-3.01045 9.35585,-13.08769 13.75,-29.8125 4.97489,-18.93518 6.29268,-22.56984 10.125,-27.90625 5.38553,-7.49922 10.93395,-10.67505 23.6875,-13.625 10.91266,-2.52415 13.92336,-3.63398 18.03125,-6.65625 3.85413,-2.83557 6.25,-7.09612 6.25,-11.09375 0,-5.38012 -5.72522,-14.90329 -12.1875,-20.28125 -10.05471,-8.36762 -14.88618,-10.38985 -24.8125,-10.40625 z m -15.09375,20.5 c 2.46063,0.0704 4.2638,1.01379 6.15625,2.90625 4.88867,4.88867 3.322,10.2952 -4.0625,14.0625 -2.73591,1.39575 -4.76562,3.64319 -7.0625,7.75 -1.77617,3.17579 -3.92933,6.3125 -4.78125,7 -2.19141,1.76847 -4.57772,1.55853 -7.3125,-0.65625 -2.9947,-2.42528 -2.92937,-7.89952 0.15625,-17.125 2.51395,-7.51629 5.93377,-11.57871 10.9375,-12.96875 1.89577,-0.52665 3.49067,-0.84678 4.875,-0.9375 0.38069,-0.0249 0.74223,-0.0413 1.09375,-0.0312 z m -55.59375,25.40625 c 0.3976,0.007 0.78949,0.0642 1.15625,0.15625 3.39413,0.85188 7.51472,7.03236 8.21875,12.28125 0.45097,3.36222 0.13648,4.39477 -2.03125,6.5625 -5.38379,5.38379 -11.91422,1.84548 -13.84375,-7.5 -0.63394,-3.07034 -0.8709,-6.30239 -0.53125,-7.1875 0.92595,-2.413 4.24808,-4.3615 7.03125,-4.3125 z"
         id="path5881"
         style="fill:#608FE9;fill-opacity:1;stroke:none;display:inline"
         inkscape:connector-curvature="0" />
      <path
         d="m 393.33351,645.21302 c -1.91958,0.0857 -3.83218,0.58771 -5.65625,1.53125 -4.14863,2.14597 -13.1038,12.12576 -20.03125,22.28125 -13.21296,19.36991 -35.67764,36.67215 -64.65625,49.84375 -4.4,1.99993 -10.63309,4.82768 -13.84375,6.28125 -6.63012,3.00168 -11.96027,8.37953 -14.875,14.96875 -1.68978,3.82009 -1.93045,6.12561 -1.59375,15.125 0.33796,9.03332 0.81853,11.53391 3.25,16.875 1.57162,3.4523 4.35602,7.61069 6.1875,9.21875 3.40717,2.99153 4.39771,3.26897 17.375,4.8125 12.18131,1.44885 26.31092,-0.99004 34.25,-5.875 11.29326,-6.94881 15.46648,-10.63567 16.15625,-14.3125 0.88513,-4.71813 -1.25168,-9.48263 -5.78125,-12.9375 -4.69567,-3.58157 -6.625,-7.43913 -6.625,-13.15625 0,-6.48584 2.08531,-10.701 8.71875,-17.65625 6.83836,-7.1701 9.75853,-8.875 15.3125,-8.875 5.19571,0 9.268,3.74176 11,10.09375 0.66243,2.42943 1.33633,4.96875 1.53125,5.65625 0.49227,1.73624 4.54633,1.55934 7.21875,-0.3125 1.22368,-0.8571 4.01104,-4.1196 6.21875,-7.25 2.20771,-3.1304 6.93964,-9.7375 10.5,-14.6875 9.63994,-13.4025 14.23525,-22.04608 16.0625,-30.21875 1.51944,-6.79595 1.52358,-7.59688 -0.15625,-12.9375 -3.63223,-11.54779 -12.24433,-18.84008 -20.5625,-18.46875 z m -6.625,28.28125 c 1.55077,0.0236 3.44291,0.64942 6.15625,1.8125 6.95537,2.98142 7.79313,9.66625 1.71875,13.75 -3.64365,2.44959 -6.15621,2.75853 -10.09375,1.1875 -6.73943,-2.68894 -8.02844,-8.49865 -3.09375,-13.78125 1.90333,-2.03752 3.31865,-2.99904 5.3125,-2.96875 z m -80.4375,62.84375 c 9.00837,-0.0102 11.09151,12.76998 3,18.4375 -5.06423,3.54712 -13.77083,0.73822 -15.1875,-4.90625 -1.52132,-6.06144 5.18957,-13.52325 12.1875,-13.53125 z"
         id="path5879"
         style="fill:#608FE9;fill-opacity:1;stroke:none;display:inline"
         inkscape:connector-curvature="0" />
      <path
         d="m 625.39601,693.80677 c -1.36629,0.0452 -2.78751,0.17438 -4.28125,0.4375 -12.93539,2.27852 -21.10921,8.47595 -31.34375,23.6875 -5.34908,7.95033 -9.14459,12.0415 -17.53125,18.96875 -1.35873,1.12229 -3.50982,4.72229 -4.8125,8 -1.95137,4.90995 -2.38015,7.78666 -2.40625,16.4375 -0.0353,11.68504 0.82683,13.95044 9.4375,24.84375 4.78432,6.05263 8.08743,7.96165 15.8125,9.09375 12.96316,1.89976 20.55008,0.59069 32.625,-5.625 8.93172,-4.59769 24.87152,-20.21585 28.90625,-28.3125 2.42949,-4.87534 2.6875,-6.43234 2.6875,-16.59375 0,-14.74296 -1.91559,-24.29212 -6.84375,-34.09375 -6.06273,-12.05815 -12.68599,-17.16019 -22.25,-16.84375 z m -14,35.84375 c 1.02899,0.0654 2.07642,0.50989 3.78125,1.34375 6.70049,3.27732 6.93998,8.62166 0.78125,16.6875 -1.96416,2.57238 -4.11894,4.6571 -4.78125,4.65625 -0.6623,-8.6e-4 -2.7625,-0.78836 -4.6875,-1.75 -2.91623,-1.45682 -3.72671,-2.61465 -4.875,-6.9375 -1.2657,-4.76491 -1.23118,-5.45104 0.53125,-8.46875 1.15301,-1.97422 3.37125,-3.82226 5.5625,-4.65625 1.63319,-0.6216 2.65851,-0.94043 3.6875,-0.875 z"
         id="path5877"
         style="fill:#608FE9;fill-opacity:1;stroke:none;display:inline"
         inkscape:connector-curvature="0" />
      <path
         d="m 848.80226,691.33802 c -6.57877,0.17171 -12.92003,2.54503 -17.84375,7.46875 -6.67354,6.67353 -9.95857,14.42472 -16.0625,37.8125 -3.04811,11.67911 -6.40401,24.54952 -7.46875,28.625 -2.42616,9.28655 -2.59067,23.59004 -0.34375,31.15625 1.06686,3.59249 2.89431,6.70675 5.46875,9.28125 l 3.875,3.84375 c 35.60134,-2.59088 61.33066,-29.2936 69.59375,-69.1875 0.71255,-12.99795 -0.14136,-17.95551 -4.78125,-27.875 -6.40142,-13.68539 -19.87802,-21.4528 -32.4375,-21.125 z m 5.3125,43.96875 c 2.27358,0.0807 4.57763,1.18181 6.96875,3.28125 7.9338,6.96597 7.62592,14.19269 -0.84375,19.15625 -5.57021,3.26436 -10.72173,3.38756 -14.25,0.34375 -5.4287,-4.68329 -4.71306,-14.44019 1.46875,-20 2.15482,-1.938 4.38267,-2.86199 6.65625,-2.78125 z"
         id="path5875"
         style="fill:#608FE9;fill-opacity:1;stroke:none;display:inline"
         inkscape:connector-curvature="0" />
      <path
         d="m 51.833512,700.33802 c -13.613856,0 -23.364216,12.05271 -33.125,41 -3.104948,9.20826 -3.566603,12.03779 -3.96875,23 -0.75761,23.58849 13.389923,47.66886 41.84375,57 6.850611,9e-4 10.414478,-5.1478 12.03125,-17.375 1.209393,-9.14638 3.669941,-18.15772 10.5625,-38.96875 7.199517,-21.73785 7.125543,-23.27989 -1.78125,-40.75 -9.385761,-18.40957 -15.256079,-23.90625 -25.5625,-23.90625 z m -4.65625,22 c 3.585002,0 8.3125,3.62574 8.3125,6.375 0,0.80061 1.8,3.74805 4,6.53125 5.614924,7.10342 5.06913,11.60675 -1.71875,14.1875 -6.62543,2.51898 -12.407876,-0.52582 -16.34375,-8.65625 -1.670628,-3.45106 -2.07973,-5.74321 -1.71875,-9.5 0.590359,-6.14398 2.9183,-8.9375 7.46875,-8.9375 z"
         id="path5873"
         style="fill:#608FE9;fill-opacity:1;stroke:none;display:inline"
         inkscape:connector-curvature="0" />
      <path
         d="m 745.36476,706.24427 c -12.64656,0.24738 -28.76843,7.10299 -40.21875,8.96875 -8.1439,2.34252 -15.50507,9.86068 -17.96875,17.96875 -2.99523,9.85745 1.9192,19.47641 4.28125,29.5625 3.81226,14.79098 2.52897,21.25888 -7.4375,38.09375 -6.41749,10.8401 -7.35361,13.36375 -5.5625,18.03125 11.3875,6.35063 84.1658,1.89607 101.53125,-11.65625 6.06188,-6.7098 8.19298,-19.51227 4.875,-29.25 -1.67434,-4.9139 -1.61369,-6.76976 0.625,-22.28125 1.43436,-9.93836 0.2241,-17.20909 -3.875,-23.3125 -6.19687,-9.08493 -17.55528,-19.96717 -29.625,-25.53125 -2.05166,-0.48093 -4.28304,-0.63956 -6.625,-0.59375 z m -5.90625,37.21875 c 1.84691,-0.0112 3.68018,0.60075 5.71875,1.84375 4.26508,2.60059 5.9907,5.52583 6.78125,11.5625 0.55128,4.20955 0.16027,6.23981 -2.34375,12.5 -1.64428,4.11078 -4.03462,8.24982 -5.3125,9.1875 -5.20208,3.81717 -10.16017,2.93002 -14.21875,-2.53125 -1.69492,-2.2807 -2.1624,-4.58789 -2.4375,-12.0625 -0.40438,-10.98711 1.0839,-15.57743 6.03125,-18.59375 2.07964,-1.2679 3.93434,-1.89508 5.78125,-1.90625 z"
         id="path5871"
         style="fill:#608FE9;fill-opacity:1;stroke:none;display:inline"
         inkscape:connector-curvature="0" />
      <path
         d="m 187.64601,713.52552 c -4.46195,0.0759 -9.13436,0.45567 -16.03125,1.15625 -23.07174,2.34359 -31.99794,4.60814 -41.1875,10.5 -6.62293,4.24626 -7.96588,5.68384 -12.28125,13 -5.71634,9.69133 -7.64625,16.10181 -7.65625,25.65625 -0.0106,10.17269 3.52738,32.63627 6.59375,41.84375 2.35296,7.0653 3.4931,8.8382 10.15625,15.8125 10.14849,10.6223 12.93857,12.2194 22.59375,12.9375 20.77329,2.03008 51.3095,6.43361 62.84375,-7.34375 4.09289,-4.5375 8.8263,-10.725 10.53125,-13.75 4.4444,-7.8854 10.68006,-24.8768 13.3125,-36.34375 1.9783,-8.61748 2.18981,-11.51995 1.65625,-23 -0.69576,-14.97002 -2.2852,-21.4084 -7.03125,-28.3125 -5.43494,-7.90624 -11.02891,-10.14929 -28.65625,-11.53125 -6.11346,-0.47929 -10.3818,-0.70089 -14.84375,-0.625 z m 1.3125,31.90625 c 1.9967,-0.0508 3.61146,0.86146 5.59375,2.84375 5.97377,5.97377 2.90862,12.94885 -8.125,18.46875 -7.43119,3.71768 -11.63737,4.28781 -18.8125,2.59375 -7.14435,-1.68686 -10.56651,-9.06536 -7.15625,-15.4375 2.39639,-4.4777 5.83626,-5.97567 14.03125,-6.09375 4.125,-0.0594 8.76419,-0.63171 10.3125,-1.28125 1.63404,-0.68551 2.95823,-1.06327 4.15625,-1.09375 z"
         id="path5869"
         style="fill:#608FE9;fill-opacity:1;stroke:none;display:inline"
         inkscape:connector-curvature="0" />
    </g>
    <path
       d="m 347.98588,428.60561 c -4.63047,-4.74203 -4.70426,-7.34232 -0.30359,-10.69887 4.71082,-3.59312 9.13813,-12.2313 8.19494,-15.98925 -0.83482,-3.3262 -7.17339,-9.51972 -9.74266,-9.51972 -0.96665,0 -2.90371,0.52223 -4.30459,1.16052 -3.82808,1.74419 -7.54705,-0.23827 -7.54705,-4.02309 0,-2.16782 1.02117,-3.76001 4.02227,-6.27144 2.21225,-1.8513 5.99712,-5.27849 8.41081,-7.61599 5.55773,-5.3823 7.81303,-5.39939 12.70879,-0.0963 l 3.83464,4.15367 1.91317,-4.40367 c 1.05224,-2.42202 2.22024,-6.73338 2.59556,-9.5808 0.58823,-4.46273 0.36597,-5.60511 -1.6107,-8.2787 -2.17861,-2.94672 -2.22024,-3.31074 -0.83382,-7.29097 0.8952,-2.56998 2.50692,-4.77493 4.16951,-5.70417 4.10513,-2.29439 10.66269,0.1957 13.03822,4.95097 2.31416,4.63244 2.46142,24.99821 0.23884,33.03207 -3.15478,11.40343 -3.23819,10.97122 3.08168,15.96793 6.3951,5.0562 8.52042,6.35629 13.14778,8.04274 5.4131,1.97282 5.23841,6.02684 -0.52603,12.20726 -3.6701,3.93495 -8.83966,3.70195 -17.14429,-0.77271 -3.54947,-1.91254 -6.76921,-3.47732 -7.15498,-3.47732 -0.38577,0 -1.83128,1.92798 -3.21224,4.28441 -1.38095,2.35642 -4.77943,6.40642 -7.55218,9 -6.59641,6.17017 -10.09618,6.3797 -15.42408,0.92343 z m -33.11406,-45.28457 c -1.63064,-1.93791 -2.58889,-4.28762 -2.58889,-6.34821 0,-6.93148 -8.49589,-39.47095 -10.94515,-41.92021 -0.50221,-0.50221 -3.06664,0.31528 -6.00383,1.9139 -4.17779,2.27383 -5.62933,2.61444 -7.83909,1.83944 -3.53904,-1.24118 -5.24726,-6.22527 -4.05401,-11.82839 1.32429,-6.21848 6.31488,-10.10361 15.64479,-12.17932 18.57117,-4.13169 37.01083,-0.83674 48.47631,8.66214 5.23919,4.34054 7.92334,10.08168 8.50555,18.19254 0.43837,6.10691 0.17679,7.38102 -2.72576,13.27695 -3.37163,6.84875 -9.96111,14.11091 -22.88203,25.21789 -8.58553,7.38023 -11.5416,7.98201 -15.58789,3.17327 z m 18.39079,-30.88343 c 2.80095,-5.49033 2.64049,-10.51058 -0.43423,-13.58529 -2.88936,-2.88937 -5.6257,-3.13653 -7.80021,-0.70455 -2.05288,2.29594 -2.30812,3.93182 -1.35985,8.71544 1.97611,9.96874 6.12322,12.37825 9.59429,5.5744 z M 275.79898,307.604 c -5.56769,-1.90607 -7.47764,-4.52892 -7.50131,-10.30124 -0.009,-2.3109 -0.72913,-4.24153 -2.01474,-5.40499 -4.29267,-3.88481 -0.78856,-9.69864 6.69132,-11.10187 4.57488,-0.85825 8.20739,1.79801 10.06022,7.35648 1.1087,3.32611 2.05584,4.35674 4.85175,5.27948 4.3328,1.42995 5.96129,0.29667 7.43429,-5.17365 1.26031,-4.68043 0.86303,-5.50372 -3.073,-6.36822 -4.62586,-1.01601 -8.79905,-5.07461 -9.56516,-9.3025 -0.87821,-4.84656 -3.28019,-11.03767 -5.5651,-14.34409 -2.53312,-3.66558 -2.29448,-7.0647 0.69302,-9.87132 5.64296,-5.30128 14.15406,-1.28891 16.84551,7.94146 0.71799,2.46234 1.80142,4.64232 2.40763,4.84439 1.82562,0.60854 4.21952,-5.34171 4.21952,-10.48799 0,-6.33262 2.05602,-9.27217 6.48527,-9.27217 6.26996,0 8.09652,4.38774 7.1273,17.12111 -0.30891,4.05839 -0.9762,15.37377 -1.48286,25.1453 -0.67396,12.99816 -1.33094,18.39176 -2.44791,20.09647 -3.4015,5.19135 -24.49436,7.49664 -35.16575,3.84335 z m -16.85975,-42.33877 c -1.01403,-0.58944 -2.47653,-2.5863 -3.25,-4.43747 -1.89622,-4.53829 -1.84101,-23.54891 0.10603,-36.51211 0.83179,-5.53792 1.25523,-10.48496 0.94099,-10.99342 -0.31425,-0.50845 -2.0298,-0.92446 -3.81234,-0.92446 -4.12661,0 -5.64098,-1.543 -5.64098,-5.74762 0,-5.98403 12.26321,-16.21379 22,-18.35202 1.925,-0.42274 5.525,-1.28101 8,-1.90728 17.27767,-4.37188 33.40932,10.53839 30.57545,28.26047 -1.06293,6.64718 -4.08955,12.35934 -9.26239,17.48101 -5.71084,5.65434 -12.23678,9.04795 -20.37251,10.59408 l -5.94055,1.12896 0,3.72198 c 0,13.04219 -6.50404,21.66369 -13.3437,17.68788 z m 23.06686,-48.84018 c 4.02239,-2.45255 5.20013,-6.34957 2.74037,-9.06758 -3.13308,-3.46201 -8.66761,-2.39952 -11.00051,2.11182 -3.86246,7.46916 0.87511,11.4586 8.26014,6.95576 z"
       id="PyDXspots"
       style="fill:#608FE9;fill-opacity:1;stroke:none;display:inline;enable-background:new"
       inkscape:connector-curvature="0" />
    <path
       d="m 579.80043,299.81952 2.29655,10.33443 52.82042,17.79819 51.67216,3.44481 35.59637,-1.14827 2.87068,-42.486 -35.59638,14.92751 -59.13591,4.59308 z"
       id="cupHolderFill"
       style="color:#000000;fill:#608FE9;fill-opacity:1;fill-rule:evenodd;stroke:none;stroke-width:1.5;marker:none;visibility:visible;display:inline;overflow:visible;enable-background:accumulate"
       inkscape:connector-curvature="0" />
    <path
       d="m 343.50196,114.37864 -32.47799,-2.43585 -6.90157,12.99119 6.4956,12.99119 18.67484,17.45692 -3.65378,-16.23899 1.6239,-12.58522 10.14937,-6.90157 z"
       id="leftCheekFill"
       style="color:#000000;fill:#608FE9;fill-opacity:1;fill-rule:evenodd;stroke:none;stroke-width:1.5;marker:none;visibility:visible;display:inline;overflow:visible;enable-background:accumulate"
       inkscape:connector-curvature="0" />
    <path
       d="m 454.33308,125.74593 -3.65378,28.01226 -11.77327,-10.14937 2.43585,-12.58522 z"
       id="rightCheekFill"
       style="color:#000000;fill:#608FE9;fill-opacity:1;fill-rule:evenodd;stroke:none;stroke-width:1.5;marker:none;visibility:visible;display:inline;overflow:visible;enable-background:accumulate"
       inkscape:connector-curvature="0" />
    <path
       d="m 406.42805,165.12549 0.81195,8.11949 12.58522,-1.21792 10.55534,-8.93145 2.02988,-10.96132 -2.84183,-8.93144 -5.68364,12.99119 -4.05975,-10.55534 -2.02988,0 -2.02987,11.36729 z"
       id="tongueFill"
       style="color:#000000;fill:#608FE9;fill-opacity:1;fill-rule:evenodd;stroke:none;stroke-width:1.5;marker:none;visibility:visible;display:inline;overflow:visible;enable-background:accumulate"
       inkscape:connector-curvature="0" />
    <path
       d="m 295.83351,43.806768 -45.65625,53.59375 c -7.71402,11.695012 8.41447,31.899202 13.21583,21.042502 3.70316,-8.37347 -13.74183,-9.82903 -6.40333,-18.26125 l 41.03125,-47.125002 0.8125,3.40625 c 0,0 5.09189,-2.50306 8.59375,6.84375 4.31927,11.52855 10.07357,36.719292 45.46875,27.3125 47.99476,-12.75531 25.33649,-50.29796 40.625,-54.5 12.3472,-3.39362 7.17363,39.54409 50.125,24.34375 25.97653,-9.19301 12.53404,-42.5227 19.8125,-47.375 L 461.67726,2.4630175 c -2.80485,-0.41294 -5.62225,-0.57339 -8.4375,-0.5625 -27.21406,0.10526 -53.92296,18.2405605 -61.0625,20.2500005 -7.23425,2.0361 -38.22479,-8.35844 -96.34375,19.65625 M 440.86476,8.7130175 c 0.54137,-0.0209 1.05685,-0.0109 1.5625,0 14.44721,0.31268 14.34919,13.1773105 13.5,22.0937505 -1.08696,11.41305 -1.53171,21.08478 -18.5,27.15625 -11.97877,4.28615 -25.72427,-3.84851 -29.875,-15.21875 -7.81168,-21.39883 5.77157,-26.49583 19.03125,-30.96875 5.80297,-1.9575305 10.49169,-2.9158405 14.28125,-3.0625005 z M 362.20851,27.619268 c 17.34351,-0.24477 26.15752,7.63942 18.15625,32.53125 -5.96554,18.55867 -15.38061,22.60771 -26.625,25.53125 -27.17392,7.06521 -30.43666,-4.53871 -36.40625,-15.75 -9.30694,-17.47904 -0.49094,-34.31661 25,-39.6875 7.36601,-1.552 14.09383,-2.54341 19.875,-2.625 z"
       id="glasses"
       style="color:#000000;fill:#000000;fill-opacity:1;stroke:#000000;stroke-width:3.79999995;stroke-linecap:square;stroke-linejoin:miter;stroke-miterlimit:4;stroke-opacity:1;stroke-dasharray:none;stroke-dashoffset:0;marker:none;visibility:visible;display:inline;overflow:visible;enable-background:accumulate"
       inkscape:connector-curvature="0" />
    <g
       id="lines"
       style="display:inline">
      <path
         d="m 414.12567,43.287678 c 6.53113,-0.46651 10.63264,2.36158 16.15625,6.09375 5.52361,3.73217 10.1295,11.05473 19.81006,9.56541 8.68493,-1.33614 23.21031,0.17065 34.61833,2.4521 1.24783,1.90999 4.98943,11.00915 6.125,14.81228 2.35539,8.02963 0.52732,20.44519 -2.6268,28.908052 -4.7269,4.36643 -13.97919,7.52785 -22.9375,11.84375 -4.69359,2.26126 -9.33789,4.96333 -12.90625,9.1875 -3.56836,4.22417 -5.69262,10.0793 -5.28125,16.875 0.85691,14.15585 8.4681,18.75066 15.02244,24.02883 6.55434,5.27817 13.39878,8.60379 20.5,17.34375 3.45471,4.25195 6.0261,9.16037 5.64624,14.19752 -0.37986,5.03715 -5.54153,13.82308 -12.51243,18.1799 -9.18032,5.7377 -17.09476,9.37588 -29.125,9.9375 -12.03024,0.56162 -28.41994,-2.18659 -53.28125,-10.46875 -35.60536,-12.32762 -70.70638,-33.07624 -107.09084,-55.31786 23.88077,25.48921 50.95067,40.23202 68.31334,50.13714 -7.38655,26.95873 1.34434,49.51591 9.9025,69.89947 66.32313,117.73917 140.23796,170.88615 132.57558,274.83067 -7.30155,123.36825 -48.64498,183.07261 -85.20058,218.81338 l -0.25,0.0937 0.0312,0.125 c -11.75531,11.46321 -23.02131,20.18437 -32.5,27.15625 -9.13591,6.71976 -33.46953,15.42321 -64.3125,19.5625 -30.84297,4.13929 -68.52679,9.74625 -106.125,9.8247 -37.5982,0.0784 -75.16393,-1.90212 -105.8125,-6 C 72.216143,821.27134 53.235516,813.58485 44.533134,806.71615 24.663783,791.03347 11.794662,768.19788 10.739712,745.58797 c -1.05495,-22.60991 5.296081,-44.13643 11.34375,-52.46875 16.404679,-22.60195 60.906858,-51.89067 114.499998,-55.71875 31.64392,-2.26028 81.23656,11.60748 134.84375,21.3125 -24.26432,7.44336 -52.39657,8.46468 -80.90625,7.53125 -17.50417,2.35501 -105.569565,-7.3896 -127.905962,9.26408 34.295615,-7.9994 89.591232,-0.17386 127.562212,1.36092 47.03246,1.53988 98.50755,-0.14921 131.39598,-31.66139 42.50992,-40.73105 53.10457,-94.14732 46.625,-146.90625 -6.47957,-52.75893 -66.21655,-106.74901 -91.70848,-147.90111 -40.13973,-64.79832 -54.93082,-170.13929 -9.25,-248.46875 6.92062,-11.866862 15.02252,-18.796962 35.875,-26.906252 6.45112,-2.50877 10.17629,-9.3973 15.8741,-13.79823 5.69781,-4.40093 14.1543,-10.43639 21.0643,-11.42353 6.70301,-0.95758 14.95558,1.31273 23.21875,3.96875 8.26317,2.65602 15.14455,8.41646 23.46785,6.7518 7.40205,-1.48041 12.23837,-4.05265 16.03125,-7.15504 3.79288,-3.10239 7.01564,-9.77166 11.35466,-10.08159 z M 644.92404,327.35123 c -8.19587,-1.29326 -27.09803,-7.63414 -38.46553,-11.01321 -17.69557,-5.26013 -30.7155,-14.78548 -44,-5.54407 16.06471,0.0318 32.05733,10.80782 40.65625,13.63782 14.14476,4.67496 28.86536,9.8357 40.90625,11.40625 12.21062,1.59269 31.09975,0.26651 48.4375,-0.9375 12.6648,-1.25188 33.2518,-2.68658 43.87846,1.50545 -5.43469,-6.09009 -19.39587,-10.03121 -29.70548,-9.67008 -20.48026,0.71739 -39.69733,4.0884 -61.70745,0.61534 z m 78.95955,-5.56136 c 7.37172,0.63127 14.00275,3.58181 18.02405,10.41693 3.07298,5.22324 4.61972,17.87504 4.78815,24.7435 0.3426,13.97111 -5.77071,16.96432 -9.53496,20.06227 -3.76425,3.09795 -9.55988,4.65776 -14.92107,6.87661 -6.07474,2.51418 -20.90903,4.62281 -36.53125,5.15625 -15.62222,0.53344 -32.46255,-0.24632 -43.96875,-2.1875 -29.31977,-4.94644 -47.26078,-12.15413 -62.0625,-19.09375 -21.53966,-10.09863 -31.14731,-26.9541 -30.30457,-39.26991 1.07868,-15.76385 8.75116,-28.5894 15.96082,-34.67478 3.98948,-3.36736 8.35207,-4.57277 12.11303,-5.06456 l -10.41879,-5.57164 c -2.8288,1.55739 -5.71664,3.49204 -8.53799,5.87343 -9.12699,7.70372 -17.1463,20.30571 -18.40625,38.71875 -0.96301,14.07346 4.93936,32.0458 26.5625,45.21875 l -0.28125,0.40625 c -16.13854,23.33639 -20.98007,50.18808 -19.53125,74.09375 1.82602,30.12936 17.69721,46.51307 31.78125,61.34375 14.08404,14.83068 26.48844,28.02427 26.84375,55.65625 0.10613,8.25398 -1.37167,15.48208 -3.84375,22.125 l -3.15625,0.375 c -39.83937,4.57867 -68.35075,14.57787 -94.96875,25.53125 2.67018,-16.63835 5.77963,-34.42557 6.88942,-53.78125 9.48708,-124.54212 -95.20349,-189.3753 -136.10817,-281.90625 -7.6742,-18.27819 -14.39858,-36.69821 -8.25,-60.59375 8.16286,3.9032 16.28819,7.50384 23.96875,10.0625 25.5039,8.49622 43.05607,11.68804 57.125,11.03125 14.06893,-0.65679 24.38271,-5.39544 34.25,-11.5625 9.30715,-5.81697 14.09364,-14.21072 14.71875,-22.5 0.62511,-8.28928 -2.49906,-16.17192 -7.4375,-22.25 -14.49026,-16.4759 -32.65655,-16.57021 -34.01788,-39.26608 2.28689,-18.93252 31.66312,-19.39701 42.08038,-29.92142 l 0.65625,-0.71875 0.375,-0.90625 c 4.89529,-11.782302 3.82438,-24.507912 0.875,-34.562502 -1.47469,-5.02729 -3.42999,-9.39836 -5.59375,-12.84375 -2.16376,-3.44539 -3.86251,-6.51001 -8.65625,-7.46875 -10.117,-2.0234 -21.50555,-3.65434 -34,-1.73212 -5.79563,0.89163 -9.32421,-4.62207 -14.8125,-8.33038 -5.48829,-3.70831 -12.70822,-8.59897 -22.84375,-7.875 l 0,5e-5 c -7.5355,0.53825 -12.70347,4.51682 -16.65625,7.75 -3.95278,3.23318 -6.87229,5.72446 -11.375,6.625 -3.58146,0.7163 -10.9715,-1.29888 -19.375,-4 -8.4035,-2.70112 -18.00509,-5.79838 -27.96875,-4.375 -9.75666,1.39381 -17.42323,6.45982 -23.625,11.25 -6.20177,4.79018 -11.95392,12.31489 -15.04733,13.51788 -22.00466,8.55737 -32.67975,14.76241 -40.60892,28.45087 -47.8804,82.658082 -28.41339,197.657752 9.375,259.312502 24.70382,40.30623 81.26089,91.76599 87.46875,142.3125 6.20786,50.54651 -3.58751,99.78502 -43.40625,137.9375 -6.39694,6.12925 -13.60629,11.00807 -21.375,15 l -4.375,-0.71875 c -57.49478,-9.47371 -111.79338,-26.37859 -149.90625,-23.65625 -56.933176,4.06666 -103.263301,33.77395 -122.343748,60.0625 -8.697911,11.98376 -14.497636,34.45716 -13.34375,59.1875 1.153886,24.73034 9.898262,51.78244 32.78125,69.84375 12.794199,10.09833 37.204976,15.8115 68.531248,20 31.32628,4.1885 69.2617,6.17301 107.25,6.09375 37.9883,-0.0793 76.01141,-2.24281 107.5,-6.46875 31.48859,-4.22594 56.14464,-9.91482 69.21875,-19.53125 9.1641,-6.74049 20.09764,-15.33449 31.59375,-26.4375 l 2.96875,-1 c 17.35448,-5.80637 32.6778,-11.78362 43.0625,-15.9375 11.02764,-4.41105 27.06669,-11.54845 43.9375,-18 4.27898,17.24683 13.03111,33.96335 28.875,46.46875 12.04652,9.50818 33.42849,15.28011 61.0625,19.4375 27.63401,4.15739 61.38517,6.25409 97,6.34375 37.4287,0.015 73.55642,-2.01709 103.25,-6.25 29.69358,-4.23291 52.79801,-10.16197 65.5,-20.1875 23.06593,-18.20566 30.57848,-46.77158 31.625,-73 1.04652,-26.22842 -4.23075,-50.4577 -8,-62.25 -3.75718,-11.75452 -11.72999,-23.17947 -21.28125,-29.8125 -29.19455,-28.60722 -82.80931,-41.54604 -136.03125,-47.375 0.36846,-4.23717 0.6062,-8.6066 0.5,-13.28125 -1.12968,-49.7265 -23.4432,-74.55014 -45.40625,-90.5 -14.27896,-10.68693 -41.04076,-22.9715 -43.9375,-39.9375 l -9.97475,-2.72195 c 2.90967,19.40362 22.63651,31.11269 47.02453,48.41263 33.96792,24.09555 42.98799,41.82332 41.66897,84.99682 -0.7658,25.06576 -6.34482,41.72214 -16.125,55.53125 -9.64659,13.62049 -22.34515,24.31689 -33.53125,36.40625 -10.48992,-0.62492 -14.85211,-6.90203 -43.41428,-4.7028 38.67569,3.34657 64.69743,29.17574 99.55713,19.89388 28.27855,-9.89587 50.93935,-21.04741 87.47249,-24.4481 -13.6292,-6.26297 -55.07552,2.00737 -68.36534,6.69452 -14.99539,5.33497 -25.63913,9.92637 -38.96875,9.90625 -6.31954,-0.01 -15.09291,-1.93117 -24.375,-4.28125 9.78936,-10.0213 20.93273,-20.06876 30.3125,-33.3125 7.33474,-10.35626 13.26104,-22.76271 16.15625,-38.125 52.31341,5.72339 104.38687,19.33965 130,44.4375 l 0.375,0.34375 0.40625,0.28125 c 7.02166,4.6295 14.74868,15.22721 17.8125,24.8125 3.34208,10.45586 8.50913,34.08558 7.53125,58.59375 -0.97788,24.50817 -11.57168,47.73889 -31.25813,63.27718 -9.04046,7.13554 -27.80319,15.68682 -56.77312,19.81657 -28.96169,4.12857 -64.69073,6.16996 -101.71875,6.15625 -0.0106,-3e-5 -0.0207,3e-5 -0.0312,0 -35.20211,-0.0898 -68.52307,-2.17431 -95.40625,-6.21875 -26.89125,-4.04565 -42.03886,-12.33051 -50.6128,-19.09782 -19.86551,-15.67961 -32.74148,-37.18721 -33.60595,-59.68343 -0.86447,-22.49622 5.33181,-44.07962 10.96875,-53.25 9.61165,-15.63659 31.80424,-28.75802 52.15625,-45.09375 20.35201,-16.33573 39.06105,-37.08186 38.65625,-68.5625 -0.39761,-30.9214 -15.60524,-47.88497 -29.78125,-62.8125 -14.17601,-14.92753 -27.25275,-27.92031 -28.875,-54.6875 -1.3336,-22.00441 3.12489,-46.39386 17.65625,-67.40625 l 1,-1.4375 -5e-5,0 c 15.75311,7.16966 34.54684,12.61464 63.875,17.5625 1.62058,0.2734 5.25,0.6875 5.25,0.6875 l 12.875,1.21875 c 8.98616,0.56735 18.6097,0.72689 28,0.40625 16.21696,-0.55375 31.01196,-2.12705 40.21875,-5.9375 3.15319,-1.30503 10.52862,-2.3616 17,-7.6875 6.47138,-5.3259 11.01571,-14.97282 10.625,-30.90625 -0.21208,-8.6488 -2.53548,-17.28157 -7.34375,-24.34375 -3.15951,-4.64055 -7.58989,-8.43982 -12.90625,-10.96875 15.6068,-3.95995 33.01202,-13.02448 45.5,-34.8125 17.59829,-30.70407 12.486,-61.05895 2.21875,-82.25 -5.13363,-10.59553 -11.48891,-18.99227 -17.21875,-24.5625 -2.86492,-2.78511 -5.49392,-4.89911 -8.21875,-6.25 -1.36242,-0.67544 -2.7489,-1.22156 -4.5625,-1.3125 -1.8136,-0.0909 -4.44772,0.69246 -5.96875,2.59375 -1.27945,1.59931 -1.56766,3.56876 -1.46875,4.90625 0.0989,1.33749 0.44331,2.3494 0.8125,3.3125 0.73837,1.92619 1.75345,3.74594 2.90625,5.875 2.30561,4.25812 5.22639,9.55022 7.40625,15.875 4.35972,12.64956 6.10333,28.90032 -7.09375,49.34375 -5.80422,8.99124 -14.35459,14.602 -24.32878,18.17836 l 1.34277,10.74496 c 12.50267,-4.11656 24.10183,-11.10525 31.89226,-23.17332 15.3788,-25.89452 9.34669,-52.53094 -1.86957,-71.87101 -7.26407,-12.57126 0.14536,-6.67316 4.62259,-2.46694 39.95059,37.53234 16.65898,84.07077 10.30948,95.7442 -13.13486,22.91663 -30.71503,29.62347 -46.00989,31.69658 z M 596.05226,598.02552 c -6.31289,10.03486 -15.26049,18.51925 -25.28125,26.5625 -19.47319,15.63033 -42.68688,28.52405 -54.5625,47.84375 -7.50886,12.21569 -13.47566,34.64217 -12.53125,59.21875 0.15702,4.08611 0.61916,6.21566 1.21875,10.375 -17.94787,6.77726 -34.86521,14.38359 -45.78125,18.75 -6.76449,2.7058 -16.08647,6.22434 -26.21875,9.90625 25.21123,-23.36134 54.93919,-74.68083 68.375,-145.8125 l 1.46875,-0.625 c 26.38985,-11.1561 54.10684,-21.31054 93.3125,-26.21875 z"
         id="snakeOutline"
         style="font-size:medium;font-style:normal;font-variant:normal;font-weight:normal;font-stretch:normal;text-indent:0;text-align:start;text-decoration:none;line-height:normal;letter-spacing:normal;word-spacing:normal;text-transform:none;direction:ltr;block-progression:tb;writing-mode:lr-tb;text-anchor:start;baseline-shift:baseline;color:#000000;fill:#000000;fill-opacity:1;stroke:none;stroke-width:10.625;marker:none;visibility:visible;display:inline;overflow:visible;enable-background:accumulate;font-family:Sans;-inkscape-font-specification:Sans"
         inkscape:connector-curvature="0" />
      <path
         d="m 676.39062,202.18555 c -9.85104,-0.10444 -20.56196,0.31187 -31.7832,1.30273 -22.44247,1.98174 -42.58854,5.87179 -57.48828,10.76563 -7.44988,2.44692 -13.57007,5.10021 -18.33398,8.29492 -2.38196,1.59736 -4.46114,3.30537 -6.17578,5.62305 -1.44741,1.95643 -2.60106,4.63707 -2.7793,7.57617 l -0.13086,0 -0.32227,7.50781 c -1.73716,1.48044 -3.32339,3.07073 -4.52734,5.07422 -1.30119,2.16531 -2.12299,4.99074 -2.03711,7.84961 l -0.25781,0.0703 0.58203,14.94531 0,0.61719 0,0.37695 0.0312,0.34375 c 0.28813,3.75796 2.23645,6.92657 4.42969,9.05078 2.19323,2.1242 4.71251,3.56357 7.5664,4.83399 5.7078,2.54084 12.90836,4.25293 21.53516,5.48437 17.25359,2.46289 40.19175,2.80515 65.3457,0.58399 25.15395,-2.22116 47.73038,-6.57745 64.375,-12.03321 8.32231,-2.72786 15.12948,-5.6825 20.36914,-9.1875 2.61982,-1.75247 4.89079,-3.62913 6.72656,-6.10351 1.38829,-1.87123 2.54714,-4.29912 2.91016,-6.99414 0.0394,-0.17343 -2.82085,-14.54996 -4.20312,-19.7793 l -0.29102,-1.09765 -0.55078,-0.85743 c -0.69001,-1.90504 -1.62214,-3.68648 -2.87695,-4.93554 -1.05926,-1.0544 -2.20691,-1.8642 -3.42774,-2.57227 l -1.71289,-7.74805 -0.19531,-0.92578 -0.0644,0 c -0.65637,-2.77645 -2.16046,-5.1485 -3.84766,-6.78711 -2.04987,-1.99084 -4.35557,-3.29793 -6.95117,-4.45703 -5.19122,-2.31821 -11.64387,-3.8634 -19.36719,-4.9707 -7.72332,-1.1073 -16.69582,-1.74714 -26.54688,-1.85156 z m -1.38281,8.83398 c 9.35667,0.0941 17.84069,0.65474 25.04492,1.62891 7.20423,0.97416 13.12181,2.3474 17.46289,4.17578 2.17057,0.91419 3.95699,1.93708 5.32422,3.18945 1.1325,1.03736 1.87327,2.33755 2.21875,3.75391 0.0364,0.0616 0.11192,0.15452 0.13672,0.20312 0.11833,0.23217 0.16651,0.37913 0.22071,0.54297 0.10842,0.32769 0.20018,0.68369 0.30664,1.11133 0.21292,0.85528 0.46119,1.96627 0.73046,3.14844 0.48902,2.14682 1.08501,4.36425 1.45704,5.38086 1.26318,0.63279 2.43983,1.4381 3.41015,2.33398 0.61194,0.565 1.14487,1.13743 1.57813,1.7168 0.43327,0.57937 0.85205,1.04402 0.95703,2.11914 l -0.0566,-0.3125 c 1.2568,4.80961 2.96575,9.77237 4.09179,14.81445 l 0.0293,0.13672 0.0117,0.13672 c 0.15671,1.92785 -0.60578,3.7851 -1.86719,5.38867 -1.26142,1.60357 -3.03453,3.0524 -5.25781,4.45508 -4.44658,2.80536 -10.73965,5.41684 -18.5332,7.82617 -15.58709,4.81866 -37.15528,8.76513 -61.17578,10.76563 -24.0205,2.00049 -45.93567,1.67511 -62.0918,-0.5 -8.07807,-1.08756 -14.7077,-2.62177 -19.54883,-4.6543 -2.42057,-1.01626 -4.40533,-2.15268 -5.91015,-3.52734 -1.50491,-1.37467 -2.55813,-3.08387 -2.71485,-5.01172 l -0.004,-0.043 -0.002,-0.043 c -0.184,-4.89213 -0.27294,-9.77436 -0.38086,-14.63867 l 0.0137,0.20508 c -0.13162,-1.0526 0.16316,-1.80796 0.50391,-2.58204 0.34074,-0.77407 0.80065,-1.54243 1.3418,-2.30859 0.88912,-1.2588 2.06482,-2.3805 3.25781,-3.38476 0.21198,-1.90979 0.56636,-4.02167 0.92578,-5.83594 0.20148,-1.01707 0.3905,-1.92989 0.52734,-2.61524 0.0685,-0.34267 0.12536,-0.62806 0.16016,-0.82812 0.0352,-0.20002 0.0362,-0.40647 0.0332,-0.16602 l 0.008,0.18555 c -0.1451,-1.785 0.55968,-3.49689 1.70508,-4.95703 1.14534,-1.46015 2.7432,-2.76478 4.73632,-4.02539 3.98623,-2.52123 9.60299,-4.85492 16.55274,-7.00781 13.89952,-4.30577 33.11266,-7.82525 54.51172,-9.60743 10.69953,-0.89108 20.92847,-1.26402 30.28515,-1.16992 z m 17.31836,4.82617 c 3.29375,0.61134 6.13584,1.35759 8.37891,2.27149 1.63502,0.66616 2.97989,1.41188 4.01172,2.33008 1.03184,0.91821 1.77642,2.0852 1.88476,3.41796 0.10834,1.33277 -0.43791,2.60431 -1.30664,3.67969 -0.86873,1.07539 -2.07508,2.03351 -3.58008,2.96094 -3.01001,1.85485 -7.24892,3.57488 -12.49609,5.16602 -10.49435,3.18229 -24.99988,5.79931 -41.15234,7.14453 -16.15246,1.34522 -30.88643,1.16306 -41.75391,-0.24024 -5.43374,-0.70165 -9.89402,-1.69698 -13.16406,-3.02929 -1.63501,-0.66615 -2.97988,-1.41188 -4.01172,-2.33008 -1.03183,-0.9182 -1.77643,-2.08521 -1.88477,-3.41797 -0.10834,-1.33276 0.43596,-2.6043 1.30469,-3.67969 0.86872,-1.07539 2.07508,-2.03351 3.58008,-2.96094 2.69633,-1.66155 6.42721,-3.20876 10.9375,-4.6582 -4.22484,0.98148 -8.15004,2.02378 -11.67969,3.11719 -6.74526,2.08954 -12.11598,4.36625 -15.59765,6.56836 -1.74086,1.10105 -2.99905,2.1858 -3.72657,3.11328 -0.72752,0.92747 -0.91319,1.59833 -0.86719,2.16406 0.046,0.56573 0.33515,1.195 1.20118,1.98828 0.86604,0.79328 2.28121,1.65713 4.17578,2.45508 3.78915,1.5959 9.45555,2.95106 16.44726,3.89648 13.98342,1.89086 33.30177,2.19986 54.46289,0.4375 21.16113,-1.76235 40.16963,-5.26232 53.66016,-9.4414 6.74526,-2.08954 12.11596,-4.36625 15.59766,-6.56836 1.74085,-1.10106 2.99709,-2.18581 3.72461,-3.11328 0.72752,-0.92748 0.91318,-1.60029 0.86718,-2.16602 -0.046,-0.56573 -0.33514,-1.19304 -1.20117,-1.98633 -0.86604,-0.79328 -2.28121,-1.65712 -4.17578,-2.45507 -3.78915,-1.59589 -9.45551,-2.95106 -16.44727,-3.89649 -2.24562,-0.30366 -4.67562,-0.55097 -7.18945,-0.76758 z m -25.51172,1.10157 c -2.30313,0.002 -4.67202,0.0417 -7.10156,0.11718 -8.25253,0.64175 -20.04833,3.12229 -31.42187,6.66407 -12.46596,3.88195 -24.48259,9.10081 -30.78907,14.10742 2.52622,0.70122 5.6249,1.30458 9.19532,1.76562 10.55672,1.36318 25.14007,1.55539 41.11914,0.22461 15.97907,-1.33078 30.33628,-3.93388 40.53125,-7.02539 3.17731,-0.96348 5.9505,-1.98026 8.22851,-3.00195 0.0195,-0.0583 0.0397,-0.10634 0.0605,-0.18164 0.0804,-0.29102 0.17183,-0.7497 0.17383,-1.5 0.004,-1.63177 -0.79086,-3.04174 -2.50391,-4.44531 -1.71306,-1.40358 -4.31892,-2.66912 -7.48437,-3.67969 -5.55311,-1.77284 -12.79793,-2.78606 -20.00782,-3.04492 z m 25.41211,1.9414 c 1.50545,0.72117 2.84864,1.53394 3.98242,2.46289 2.16609,1.77477 3.60757,4.09681 3.60157,6.77149 -2e-5,0.008 -0.002,0.0134 -0.002,0.0215 0.10873,-0.0644 0.22971,-0.1291 0.33399,-0.19336 1.31757,-0.81192 2.26927,-1.61326 2.81836,-2.29297 0.54909,-0.67971 0.68219,-1.15917 0.65039,-1.55078 -0.0318,-0.39161 -0.23832,-0.8412 -0.88867,-1.41992 -0.65034,-0.57872 -1.71991,-1.21015 -3.15039,-1.79297 -1.86674,-0.76057 -4.38851,-1.43327 -7.34571,-2.00586 z m -59.49804,0.40625 c -10.56657,1.42258 -19.96321,3.36447 -27.22461,5.56641 -5.09748,1.54575 -9.15783,3.22771 -11.79297,4.85156 -1.31756,0.81193 -2.27119,1.6113 -2.82032,2.29102 -0.54912,0.67971 -0.68023,1.15916 -0.64843,1.55078 0.0318,0.39161 0.23832,0.8412 0.88867,1.41992 0.63299,0.56328 1.66758,1.17637 3.04102,1.74609 6.63619,-6.06261 19.63737,-11.62568 33.22656,-15.85742 1.77551,-0.5529 3.55471,-1.07012 5.33008,-1.56836 z m 90.03515,11.26172 c -1.04176,1.07827 -2.33859,2.08047 -3.8789,3.05469 -3.98624,2.52122 -9.60103,4.85492 -16.55079,7.00781 -13.89952,4.30577 -33.11264,7.82525 -54.51171,9.60742 -21.39906,1.78217 -40.92164,1.48935 -55.33008,-0.45898 -7.20422,-0.97417 -13.12373,-2.34741 -17.46485,-4.17578 -1.9,-0.80024 -3.48563,-1.69436 -4.77343,-2.74219 -0.3433,1.79085 -0.68594,3.73989 -0.82032,5.25781 l -0.0351,0.4043 0.0332,0.01 c -0.0281,0.0897 -0.0349,0.16636 -0.0566,0.25196 l -0.0215,0.24218 -0.0391,0.0293 c -0.14347,0.78627 -0.0113,1.43128 0.41993,2.14453 0.52436,0.86735 1.5748,1.81871 3.17187,2.71289 3.19412,1.78837 8.46178,3.31103 15.0957,4.39844 13.26784,2.17483 32.03055,2.71625 51.69336,1.66406 21.80658,-1.1669 42.34429,-4.75741 57.95117,-9.39062 7.80344,-2.31661 14.37635,-4.89728 19.22461,-7.52734 3.75185,-2.03529 6.41235,-4.13787 7.86719,-5.98047 l -0.32812,-0.72852 c -0.67099,-1.49313 -1.16663,-3.66265 -1.64649,-5.78125 z m 4.67188,7.93164 c -1.80736,2.5892 -4.94309,4.92143 -9.13477,7.19531 -5.12178,2.77844 -11.85628,5.40714 -19.80078,7.76563 -15.88901,4.71697 -36.609,8.33266 -58.64258,9.51172 -19.81829,1.06051 -38.70923,0.53539 -52.3418,-1.69922 -6.81627,-1.11731 -12.31006,-2.63467 -16.07421,-4.74219 -1.88207,-1.05376 -3.35998,-2.26637 -4.27344,-3.77734 -0.24259,-0.40128 -0.43476,-0.82716 -0.58008,-1.26758 -0.36486,0.41553 -0.71661,0.84229 -1.01562,1.26562 -0.42265,0.59839 -0.75913,1.17951 -0.94922,1.61133 -0.19031,0.43186 -0.16202,0.73919 -0.19532,0.47266 l 0.0137,0.10156 0.002,0.10352 c 0.0111,0.50141 0.0223,1.00083 0.0332,1.50195 0.62143,0.98293 1.82205,2.06712 3.78516,3.13281 7.47886,4.05999 23.62431,6.66847 43.20703,7.18555 19.58271,0.51708 42.70004,-0.93475 64.63086,-4.47461 17.05034,-2.7521 30.87243,-6.67451 40.3125,-10.75781 4.72004,-2.04165 8.34498,-4.1322 10.68945,-6.0586 1.74022,-1.42989 2.68589,-2.72781 3.04883,-3.74218 -0.0714,-0.26521 -0.15127,-0.52725 -0.2207,-0.79297 l -0.041,-0.15235 -0.0137,-0.1582 c 0.051,0.52193 0.055,0.20251 -0.17969,-0.11133 -0.2347,-0.31384 -0.62407,-0.74559 -1.08789,-1.17383 -0.35373,-0.32659 -0.76002,-0.64292 -1.17187,-0.93945 z m -139.50586,1.49024 c 0.21499,0.002 0.42158,0.0363 0.61328,0.10937 1.59182,0.6064 5.28791,0.98842 7.47656,1.93359 0.97487,0.421 -1.60268,2.15141 -2.44531,2.06836 -2.28061,-0.22479 -6.91899,-1.08832 -8.21875,-2.01562 -0.79184,-0.56493 1.06928,-2.10997 2.57422,-2.0957 z m 143.31445,5.73437 c -0.63253,0.7339 -1.37714,1.45453 -2.23828,2.16211 -2.68567,2.20675 -6.51494,4.3801 -11.40234,6.49414 -9.7748,4.22809 -23.78502,8.18402 -41.0254,10.9668 -22.13058,3.5721 -45.39679,5.03434 -65.18945,4.51172 -19.79266,-0.52263 -36.01404,-2.90837 -44.55859,-7.54688 -0.83155,-0.45141 -1.58189,-0.92675 -2.25586,-1.42578 0.0666,2.89004 0.14039,5.7766 0.24805,8.6543 0.0603,0.70209 0.42616,1.45976 1.42382,2.37109 1.00296,0.91617 2.61488,1.89245 4.75977,2.79297 4.28977,1.80104 10.66909,3.31794 18.53516,4.37695 15.73215,2.11803 37.44138,2.45925 61.2246,0.47852 23.78324,-1.98073 45.14714,-5.90904 60.32618,-10.60156 7.58953,-2.34625 13.63762,-4.89941 17.58008,-7.38672 1.97122,-1.24366 3.40527,-2.47354 4.24804,-3.54493 0.81296,-1.03347 1.04837,-1.82183 1.01367,-2.50976 -0.72311,-3.19157 -1.71882,-6.46816 -2.68945,-9.79297 z"
         id="cupTop"
         style="font-size:medium;font-style:normal;font-variant:normal;font-weight:normal;font-stretch:normal;text-indent:0;text-align:start;text-decoration:none;line-height:normal;letter-spacing:normal;word-spacing:normal;text-transform:none;direction:ltr;block-progression:tb;writing-mode:lr-tb;text-anchor:start;baseline-shift:baseline;color:#000000;fill:#000000;fill-opacity:1;fill-rule:nonzero;stroke:none;stroke-width:13.80000019;marker:none;visibility:visible;display:inline;overflow:visible;enable-background:accumulate;font-family:Sans;-inkscape-font-specification:Sans"
         inkscape:connector-curvature="0" />
      <path
         d="m 467.23976,91.619268 c -9.61141,2.58284 -9.44229,15.311872 -17.12116,20.558112 -12.49163,10.21884 -29.90193,9.3884 -45.09759,8.50434 -25.95633,-1.7497 -51.54775,-6.51629 -77.05284,-11.40246 -8.45598,-1.84907 -18.98951,-1.56263 -24.16035,5.90166 -6.70538,6.73768 -1.53014,18.66831 3.82748,24.72744 19.24591,22.57938 46.14262,36.14754 70.09344,52.90971 20.36481,14.25247 39.15281,25.59749 64.5744,27.32367 14.9052,0.88232 27.74467,-3.19635 38.99454,-12.70936 7.58957,-6.95473 9.64632,-19.7165 0.78299,-26.56032 2.90995,10.22156 1.53299,11.65707 -1.10822,17.03166 -5.34791,9.4173 -14.44449,11.54947 -24.19728,14.86433 -20.12528,3.23722 -37.42393,-2.88903 -55.64195,-12.2987 -17.77259,-10.11634 -33.80278,-22.93788 -51.35883,-33.40818 -14.53035,-10.15273 -30.14088,-20.1119 -40.29239,-34.99828 -5.20819,-9.43879 0.12846,-19.51854 9.76139,-17.27045 13.8301,0.1735 27.1727,4.6759 40.83193,6.5013 21.0618,3.11923 42.33069,8.51011 63.68184,7.6616 15.97613,-0.66688 30.77,-7.84046 37.79379,-21.67415 3.65554,-8.207682 5.20494,-17.311702 10.10283,-5.35015 4.3542,6.97081 15.50643,7.53985 20.9592,3.13852 1.19984,-3.63934 -0.16523,-11.951872 -2.45029,-5.511802 -1.59647,4.499392 -5.65621,2.406042 -8.61043,2.217712 -6.44789,-0.9295 -7.09638,-11.192182 -14.3125,-10.156202 z"
         id="mouthLines"
         style="font-size:medium;font-style:normal;font-variant:normal;font-weight:normal;font-stretch:normal;text-indent:0;text-align:start;text-decoration:none;line-height:normal;letter-spacing:normal;word-spacing:normal;text-transform:none;direction:ltr;block-progression:tb;writing-mode:lr-tb;text-anchor:start;baseline-shift:baseline;color:#000000;fill:#000000;fill-opacity:1;stroke:none;stroke-width:6;marker:none;visibility:visible;display:inline;overflow:visible;enable-background:accumulate;font-family:Sans;-inkscape-font-specification:Sans"
         inkscape:connector-curvature="0" />
      <path
         d="m 634.23324,396.82953 -0.21733,9.10797 -0.125,2.90625 c -4.34543,2.44828 -10.4901,4.854 -17.14091,6.96875 -10.60931,3.37343 -21.68777,6.12393 -35.9375,7.8125 -26.15563,3.09941 -54.22026,2.60859 -80.15625,-3.8125 l -0.6875,-3 -1.80666,-8.02522 -9.49483,-2.04854 L 491,417.125 l -2.19039,-0.21875 0.65625,3.625 4.4375,23.5 c -0.0997,3.61196 10.29366,3.04721 9.58123,-0.84375 l -4.20215,-18 c 27.50539,7.51237 54.24373,8.20259 82.06131,4.90625 14.49513,-1.71765 25.82629,-4.48541 36.78125,-7.96875 8.51981,-2.70903 13.98097,-3.82325 19.10966,-7.3125 l -1.90625,41.625 c -0.23118,0.85081 0.0329,1.54309 0.5625,2.03125 l -3.78125,-0.15625 -0.15625,4.40625 -3.28125,85.40625 c -0.18675,0.15093 -0.28577,0.27818 -0.78125,0.5625 -1.49956,0.86048 -4.23443,1.96072 -7.71875,3.03125 -6.96865,2.14105 -15.50716,4.22078 -26.76591,5.6875 -21.52562,2.80423 -45.49753,3.25547 -63.21875,-1.21875 l -15.09375,-69.21875 -0.9375,-4.3125 -8.59375,1.875 0.9375,4.3125 15.65625,71.90625 0.5625,2.5625 2.53125,0.71875 c 20.07763,5.85641 45.99954,5.158 69.28125,2.125 14.57412,-2.56951 31.47253,-4.50262 41.44913,-13.76773 0,0 3.16348,-59.78809 4.30082,-89.32602 l 0.1875,-4.40625 -0.1875,0 c 0.62007,-0.44294 1.33499,-1.10503 1.37356,-2.03125 l 2.09375,-50.4375 0.21875,-5.5 -1.43606,1.09375 0.35369,-7.99886 z"
         transform="translate(84.89601,-121.56823)"
         clip-path="url(#cupClip)"
         id="cupOutline"
         style="font-size:medium;font-style:normal;font-variant:normal;font-weight:normal;font-stretch:normal;text-indent:0;text-align:start;text-decoration:none;line-height:normal;letter-spacing:normal;word-spacing:normal;text-transform:none;direction:ltr;block-progression:tb;writing-mode:lr-tb;text-anchor:start;baseline-shift:baseline;color:#000000;fill:#000000;fill-opacity:1;stroke:none;stroke-width:8.80000019;marker:none;visibility:visible;display:inline;overflow:visible;enable-background:accumulate;font-family:Sans;-inkscape-font-specification:Sans"
         inkscape:connector-curvature="0" />
      <path
         d="m 430.45851,139.58802 c -2.37317,-0.35702 -3.54689,1.85746 -3.83413,3.95317 -0.74779,5.45589 -2.87829,12.44222 -4.39553,2.53511 -0.39062,-2.55062 -1.75674,-5.73045 -3.61362,-5.44981 -2.56007,-0.0803 -3.65865,2.36929 -3.72577,4.80644 -0.95113,5.25308 -0.56625,13.70475 -5.86264,15.59115 -1.81897,1.4042 -4.7487,0.60952 -5.63904,2.99038 -1.19707,2.58941 -1.53128,5.61616 -0.92046,8.39651 0.63502,2.30414 3.02605,3.27162 5.22424,3.15111 6.39602,0.54511 13.32708,-0.3849 18.45314,-4.54969 5.78753,-4.75892 8.37736,-12.43385 8.43422,-19.75494 -0.0118,-3.23285 -0.30239,-6.56378 -1.54221,-9.5755 -0.51013,-1.014 -1.40377,-1.94004 -2.5782,-2.09393 z m -0.0778,13.14752 c 0.12966,11.87098 -9.01818,19.9085 -21.28187,18.13653 -1.95977,-0.41326 -1.29737,-4.55525 -0.0291,-5.40698 1.18726,-0.71326 3.60571,-1.74261 5.71047,-3.46603 2.46953,-2.0221 3.18777,-5.72255 3.28161,-8.96943 0.17086,-5.91166 2.63836,-4.46011 3.28017,7.15311 0.36558,1.01519 1.07552,1.52477 1.63878,0.9089 4.02175,-1.57551 5.39545,-7.92046 5.91153,-10.90736 0.39993,-2.31466 1.64855,-2.38741 1.48841,2.55126 z"
         id="tongueLines "
         style="font-size:medium;font-style:normal;font-variant:normal;font-weight:normal;font-stretch:normal;text-indent:0;text-align:start;text-decoration:none;line-height:normal;letter-spacing:normal;word-spacing:normal;text-transform:none;direction:ltr;block-progression:tb;writing-mode:lr-tb;text-anchor:start;baseline-shift:baseline;color:#000000;fill:#000000;fill-opacity:1;fill-rule:nonzero;stroke:none;stroke-width:6;marker:none;visibility:visible;display:inline;overflow:visible;enable-background:accumulate;font-family:Sans;-inkscape-font-specification:Sans"
         inkscape:connector-curvature="0" />
      <path
         d="m 407.03616,172.24465 c -1.48666,0.94221 -2.94581,1.68178 -3.95265,1.71837 0.0516,-0.002 -1.36742,-0.19242 -3.125,-0.875 -1.75758,-0.68258 -3.98701,-1.73111 -6.5,-3.03125 -17.22869,-8.55762 -28.47486,-16.47282 -43.67351,-26.15629 10.71079,13.18505 26.26639,22.98795 40.45476,30.37504 2.65195,1.37204 5.05765,2.51659 7.1875,3.34375 2.12985,0.82716 3.81766,1.41964 5.90625,1.34375 3.39173,-0.12325 7.63624,-1.19725 11.3125,-3.65625 12.1933,2.20864 23.38582,9.451 29.36775,13.07913 -4.19237,-11.92503 -22.82289,-18.13686 -24.524,-18.73538 0.56175,1.02806 -10.37214,3.3376 -12.4536,2.59413 z m 8.57578,-17.45259 c -6.18431,-7.32041 -16.11531,-11.66555 -24.90343,-15.92279 -7.01759,-2.9618 -16.16407,-6.65146 -24.34151,-7.21501 5.78055,3.98283 5.24913,2.71475 22.8957,11.21042 8.43692,4.08712 17.78074,9.87203 22.86583,16.09774 z"
         id="path3155"
         style="font-size:medium;font-style:normal;font-variant:normal;font-weight:normal;font-stretch:normal;text-indent:0;text-align:start;text-decoration:none;line-height:normal;letter-spacing:normal;word-spacing:normal;text-transform:none;direction:ltr;block-progression:tb;writing-mode:lr-tb;text-anchor:start;baseline-shift:baseline;color:#000000;fill:#000000;fill-opacity:1;stroke:none;stroke-width:7;marker:none;visibility:visible;display:inline;overflow:visible;enable-background:accumulate;font-family:Sans;-inkscape-font-specification:Sans"
         inkscape:connector-curvature="0" />
      <path
         d="m 347.77101,115.58802 c -11.1848,-0.38217 -23.75854,6.79582 -25.13982,18.70913 -1.1051,11.82558 7.30496,21.76045 15.30502,29.40829 7.63115,7.31033 16.25631,13.57917 25.5536,18.60128 7.16114,-1.6523 -1.28706,-7.47201 -4.58276,-8.46807 -11.96417,-8.08223 -24.08676,-17.45599 -30.32998,-30.85673 -2.74477,-6.56316 -0.43936,-14.68975 5.62289,-18.55603 8.59071,-5.78722 19.50794,-3.68358 29.14533,-2.67833 4.18041,1.96343 12.21007,0.0937 7.04869,-4.57879 -7.51654,-0.0256 -15.03373,-1.95662 -22.62297,-1.58075 z m 116.1875,2.21875 c -8.05347,4.20829 -18.42436,4.91261 -24.39397,12.44258 -5.42366,7.9591 -1.57917,19.42203 6.3731,24.13719 10.86717,6.85999 11.27924,10.61115 11.59233,2.95304 -4.58076,-4.40083 -10.97547,-7.12861 -14.22415,-12.90954 -3.75258,-6.17709 0.27058,-14.31373 7.09746,-16.00321 4.5942,-2.95953 11.7182,-2.36179 14.99132,-6.82434 0.018,-1.34924 -1.03487,-2.53457 -1.43609,-3.79572 z"
         id="innerCheekLines"
         style="font-size:medium;font-style:normal;font-variant:normal;font-weight:normal;font-stretch:normal;text-indent:0;text-align:start;text-decoration:none;line-height:normal;letter-spacing:normal;word-spacing:normal;text-transform:none;direction:ltr;block-progression:tb;writing-mode:lr-tb;text-anchor:start;baseline-shift:baseline;color:#000000;fill:#000000;fill-opacity:1;stroke:none;stroke-width:5;marker:none;visibility:visible;display:inline;overflow:visible;enable-background:accumulate;font-family:Sans;-inkscape-font-specification:Sans"
         inkscape:connector-curvature="0" />
      <path
         d="m 427.2191,72.167868 c 3.25709,-0.14315 5.7984,-0.54282 8.46516,0.2189 3.08587,0.88145 5.80831,2.23944 8.48172,3.66243 -0.48146,-5.45653 -0.93783,-7.53147 -7.04922,-9.11287 -5.19079,-1.91658 -7.77967,1.4919 -9.89766,5.23154 z"
         id="nostrilLine"
         style="font-size:medium;font-style:normal;font-variant:normal;font-weight:normal;font-stretch:normal;text-indent:0;text-align:start;text-decoration:none;line-height:normal;letter-spacing:normal;word-spacing:normal;text-transform:none;direction:ltr;block-progression:tb;writing-mode:lr-tb;text-anchor:start;baseline-shift:baseline;color:#000000;fill:#000000;fill-opacity:1;stroke:none;stroke-width:7;marker:none;visibility:visible;display:inline;overflow:visible;enable-background:accumulate;font-family:Sans;-inkscape-font-specification:Sans"
         inkscape:connector-curvature="0" />
      <path
         d="m 339.27772,58.075628 c -12.07931,4.59514 -14.33,15.68727 -7.25007,23.68503 -1.14558,-8.57927 1.92992,-16.97511 7.25007,-23.68503 z"
         id="pupilLine"
         style="color:#000000;fill:#000000;fill-opacity:1;stroke:none;stroke-width:0;marker:none;visibility:visible;display:inline;overflow:visible;enable-background:accumulate"
         inkscape:connector-curvature="0" />
      <path
         d="m 335.45851,55.400518 c -3.50508,-0.0615 -7.00204,1.38967 -10.03125,4.0625 -3.02921,2.67283 -5.71427,6.53197 -8.09375,11.6875 l -0.59375,1.3125 0.625,1.3125 c 0,0 2.8629,6.06246 9.09375,9.0625 3.11542,1.50002 7.21183,2.11307 11.65625,0.6875 4.44442,-1.42557 9.18307,-4.73768 14.3125,-10.65625 l 1.34375,-1.53125 -0.96875,-1.8125 c -4.40596,-8.41138 -10.3336,-14.00202 -17.34375,-14.125 z m 13.21319,15.50428 c -9.05577,9.64742 -19.57581,11.72116 -26.63657,1.37072 7.1194,-14.11348 16.30004,-17.81647 26.63657,-1.37072 z"
         id="eyeOutline"
         style="font-size:medium;font-style:normal;font-variant:normal;font-weight:normal;font-stretch:normal;text-indent:0;text-align:start;text-decoration:none;line-height:normal;letter-spacing:normal;word-spacing:normal;text-transform:none;direction:ltr;block-progression:tb;writing-mode:lr-tb;text-anchor:start;baseline-shift:baseline;color:#000000;fill:#000000;fill-opacity:1;stroke:none;stroke-width:6;marker:none;visibility:visible;display:inline;overflow:visible;enable-background:accumulate;font-family:Sans;-inkscape-font-specification:Sans"
         inkscape:connector-curvature="0" />
    </g>
  </g>
</svg>
